<?xml version="1.0" standalone="no"?>
<!DOCTYPE svg PUBLIC "-//W3C//DTD SVG 20010904//EN"
 "http://www.w3.org/TR/2001/REC-SVG-20010904/DTD/svg10.dtd">
<svg version="1.0" xmlns="http://www.w3.org/2000/svg"
 width="1330.000000pt" height="1000.000000pt" viewBox="0 0 1330.000000 1000.000000"
 preserveAspectRatio="xMidYMid meet">
<metadata>
Created by potrace 1.16, written by Peter Selinger 2001-2019
</metadata>
<g transform="translate(0.000000,1000.000000) scale(0.100000,-0.100000)"
fill="#000000" stroke="none">
<path d="M3967 9433 c-2 -5 -26 -80 -51 -168 -50 -169 -68 -230 -140 -470 -71
-237 -79 -198 76 -353 l134 -133 149 3 150 3 21 89 c11 49 24 84 28 78 4 -7
25 -12 46 -12 37 0 44 -5 106 -80 l67 -80 104 -2 c56 -1 118 -2 136 -3 17 -1
43 2 56 7 13 4 28 5 35 0 17 -13 293 -15 301 -2 4 7 12 7 25 0 10 -5 84 -10
164 -10 l145 0 6 33 c3 17 9 55 13 82 l9 50 22 -50 c13 -27 29 -65 36 -82 l14
-33 1640 1 1639 0 91 139 c54 83 89 145 85 154 -4 12 4 15 42 18 48 3 48 3
104 85 30 45 60 90 66 100 9 15 16 -4 39 -102 15 -66 42 -181 59 -255 l32
-135 155 -3 155 -2 119 131 c66 72 121 137 123 144 3 11 -106 423 -122 465 -4
10 18 48 60 102 62 83 65 89 55 120 -5 18 -19 66 -31 106 l-21 72 -324 0
c-234 0 -325 -3 -325 -11 0 -8 -4 -8 -13 0 -10 8 -513 11 -1824 11 l-1811 0
-11 -63 c-6 -35 -11 -72 -11 -82 0 -33 -24 2 -53 75 l-26 65 -148 2 c-124 1
-150 -1 -160 -14 -10 -13 -13 -14 -18 -2 -8 21 -302 20 -315 -1 -8 -12 -10
-12 -15 2 -6 14 -28 16 -161 17 -118 1 -155 -1 -158 -11 -3 -7 -10 -40 -18
-73 l-13 -60 -42 -3 c-33 -2 -43 -8 -50 -27 -7 -21 -14 -15 -74 73 l-66 97
-151 3 c-83 1 -153 -1 -155 -5z m260 -67 c-3 -8 -9 -31 -13 -51 -9 -49 -36
-59 -143 -51 -47 4 -87 8 -89 11 -2 2 2 27 9 54 l13 51 114 0 c95 0 113 -2
109 -14z m583 7 c-1 -5 -13 -64 -28 -133 l-27 -125 -54 -3 -54 -4 8 76 7 76
-55 0 -55 0 8 33 c4 17 11 44 14 60 l6 27 115 0 c63 0 115 -3 115 -7z m327
-15 c-3 -13 -9 -44 -12 -70 l-7 -48 -55 0 c-69 0 -69 -24 0 -28 26 -2 47 -4
47 -6 0 -1 -15 -88 -34 -192 -19 -104 -42 -236 -52 -294 -9 -58 -22 -111 -27
-117 -13 -18 -102 -17 -116 1 -8 10 -10 31 -6 63 6 36 4 45 -4 37 -7 -6 -14
-28 -18 -50 -3 -21 -12 -45 -21 -51 -19 -15 -68 -17 -77 -3 -3 5 20 130 51
277 30 147 64 311 75 363 11 52 22 105 24 118 5 21 9 22 121 22 115 0 116 0
111 -22z m329 -9 c-3 -17 -6 -42 -6 -55 0 -22 -4 -24 -51 -24 -36 0 -49 -4
-47 -12 3 -7 18 -14 34 -16 16 -1 53 -5 82 -8 l54 -6 -7 -74 -7 -74 45 0 c51
0 52 1 63 93 6 56 7 57 37 57 17 0 68 -5 114 -12 l83 -12 0 -31 c0 -17 -9
-119 -20 -226 -12 -107 -24 -227 -27 -267 -7 -80 -22 -99 -70 -87 -20 5 -24
11 -20 28 13 57 30 205 24 220 -5 13 -12 14 -37 7 -16 -5 -71 -6 -121 -3 l-91
6 7 71 c4 39 8 76 9 81 0 6 -20 11 -46 13 -53 3 -51 6 -67 -120 l-6 -53 -115
4 c-63 1 -119 5 -123 8 -5 3 -6 17 -3 31 3 15 21 119 41 232 20 113 38 217 41
233 l6 27 115 0 116 0 -7 -31z m410 -36 c-4 -36 -9 -70 -12 -75 -8 -12 -55
-10 -105 6 -24 8 -61 17 -83 21 -38 6 -38 7 -32 43 3 20 6 45 6 55 0 15 12 17
116 17 l117 0 -7 -67z m674 40 c0 -16 -3 -45 -6 -65 l-7 -38 -166 -2 -166 -3
-3 -82 -3 -83 81 0 80 0 0 -67 c0 -48 3 -64 10 -53 5 8 10 39 10 68 l0 52 75
0 76 0 -3 -72 -3 -73 -172 -3 -173 -2 0 -63 c0 -34 -3 -72 -6 -84 l-6 -23 141
0 c133 0 141 -1 141 -20 0 -16 -8 -19 -57 -22 l-58 -3 -3 -57 c-3 -51 -6 -59
-27 -64 -33 -8 -252 -1 -261 9 -5 4 -8 45 -9 90 l0 82 -43 -3 c-70 -6 -71 -5
-51 185 10 92 18 171 19 176 0 4 21 7 48 7 26 0 57 3 70 6 43 12 22 24 -41 24
-35 0 -66 2 -68 5 -5 5 9 171 16 193 3 9 69 12 285 12 l280 0 0 -27z m660 -38
l0 -65 -162 -2 -163 -3 -3 -71 -3 -72 -43 13 c-61 19 -156 29 -156 18 0 -5 34
-15 75 -21 42 -7 87 -19 100 -28 25 -16 25 -17 25 -173 l0 -156 163 0 c89 0
168 -2 175 -4 8 -2 12 -26 12 -76 0 -79 -4 -85 -60 -85 -36 0 -47 15 -56 78
-3 28 -11 49 -16 46 -5 -3 -6 -29 -3 -59 l7 -54 -36 -6 c-19 -4 -71 -6 -115
-4 -60 3 -84 9 -100 23 -16 15 -29 17 -62 12 -22 -4 -48 -13 -56 -22 -11 -10
-30 -14 -62 -12 l-46 3 -3 70 c-1 39 1 119 5 180 8 103 9 109 31 115 33 7 32
24 0 28 l-28 3 6 152 c3 84 7 171 10 195 l5 42 280 0 279 0 0 -65z m184 -7 c4
-40 10 -90 13 -110 l6 -38 -45 0 -45 0 -7 61 c-3 34 -6 84 -6 110 l0 49 39 0
38 0 7 -72z m488 -18 c3 -47 9 -111 13 -142 l6 -58 -41 0 c-36 0 -40 -2 -40
-25 0 -17 -5 -24 -17 -23 -10 1 -31 0 -46 0 -42 -3 -22 -22 23 -22 21 0 42 -4
45 -10 3 -5 23 -10 44 -10 l38 0 6 -52 c17 -144 29 -327 24 -342 -5 -12 -20
-16 -65 -16 -32 0 -63 5 -70 12 -9 9 -15 9 -24 0 -13 -13 -74 -16 -82 -4 -2 4
-8 47 -12 95 l-7 87 77 0 c43 0 76 4 76 10 0 5 -30 9 -70 8 -39 0 -73 2 -76 5
-3 3 -8 33 -11 66 l-6 61 -48 0 -49 0 0 -40 0 -40 -90 0 -90 0 0 -89 c0 -50
-4 -92 -9 -96 -5 -3 -12 -19 -16 -35 -4 -17 -12 -30 -19 -30 -10 0 -15 59 -21
259 -4 143 -4 265 0 270 3 6 24 11 47 11 31 0 41 -4 45 -20 4 -16 14 -20 43
-20 21 0 46 -3 56 -7 12 -4 15 -2 12 8 -2 8 -22 16 -43 19 -47 6 -50 16 -61
161 l-7 99 229 -2 229 -3 7 -85z m652 82 c7 -11 99 -582 95 -587 -2 -2 -58 0
-124 3 -117 7 -119 8 -125 32 -5 20 -13 26 -44 28 -64 5 -63 7 -48 -117 8 -62
11 -118 8 -126 -6 -18 -76 -21 -93 -4 -8 8 -17 8 -31 0 -27 -14 -109 -14 -117
0 -7 11 -58 500 -70 677 l-8 102 276 0 c152 0 278 -4 281 -8z m401 -27 c12
-35 22 -45 51 -45 22 0 34 -17 34 -47 0 -13 -11 -15 -60 -11 -69 5 -68 7 -47
-97 l13 -60 89 -3 c56 -2 92 -7 97 -15 4 -7 8 -38 8 -69 0 -69 -14 -81 -95
-77 -30 2 -57 0 -60 -2 -2 -3 9 -74 26 -159 17 -87 26 -157 21 -162 -5 -5 -62
-7 -128 -6 l-119 3 -7 45 c-6 37 -66 405 -108 666 -6 33 -10 64 -10 68 0 3 64
5 142 4 l143 -3 10 -30z m282 -29 c17 -74 13 -77 -87 -74 l-75 3 -13 42 c-12
36 -18 42 -45 45 -25 2 -33 8 -35 26 l-3 23 122 -3 122 -3 14 -59z m517 31
c19 -45 27 -95 17 -101 -11 -7 17 -122 97 -400 5 -17 -2 -18 -116 -15 -66 2
-123 7 -127 11 -4 4 -29 95 -56 203 -27 108 -51 201 -55 206 -4 7 -10 7 -17 0
-6 -6 -39 -11 -74 -11 -72 0 -75 4 -88 94 l-7 47 207 -1 207 -1 12 -32z m128
24 c3 0 15 -28 27 -62 23 -69 20 -72 -50 -67 -47 3 -54 13 -73 104 l-7 31 48
-2 c26 -1 51 -3 55 -4z m-5592 -143 c0 -7 -7 -40 -15 -73 -8 -33 -14 -63 -15
-67 0 -5 114 -7 253 -5 l252 2 -3 -25 c-2 -14 -24 -119 -48 -235 -31 -145 -50
-214 -61 -222 -20 -15 -195 -18 -222 -3 -17 9 -16 17 15 147 46 191 47 177 -4
184 -24 3 -45 2 -48 -2 -2 -5 -13 -41 -22 -81 l-18 -73 -74 -3 c-40 -2 -77 1
-81 5 -7 7 3 62 25 131 7 21 5 22 -42 22 l-49 0 -20 -67 -20 -68 -72 -3 c-70
-3 -71 -3 -62 20 4 13 11 35 15 51 6 27 6 27 -45 27 -44 0 -51 2 -46 18 3 9
27 88 53 175 l48 157 153 0 c116 0 153 -3 153 -12z m360 -27 c0 -16 -3 -43 -6
-60 l-6 -31 -88 0 c-47 0 -89 2 -92 5 -3 3 2 30 10 60 l15 55 84 0 83 0 0 -29z
m4649 -158 c22 -87 23 -105 10 -114 -17 -11 -120 -12 -136 -1 -6 4 -13 39 -15
80 l-3 72 67 0 67 0 10 -37z m-2041 -180 l3 -53 -157 0 -156 0 6 31 c3 17 6
42 6 56 l0 24 148 -3 147 -3 3 -52z m-3308 -1 c0 -4 -11 -43 -25 -86 -14 -43
-25 -85 -25 -92 0 -10 21 -14 78 -16 76 -3 77 -3 74 -28 -2 -14 -8 -29 -12
-34 -12 -12 -159 -20 -205 -12 -35 7 -37 9 -31 39 4 17 21 78 38 134 l32 103
38 0 c21 0 38 -3 38 -8z m1452 -51 c11 -10 -21 -204 -35 -213 -20 -13 -105 -9
-114 4 -4 7 -6 25 -4 40 4 38 -6 35 -23 -6 -15 -37 -43 -51 -77 -41 -23 8 -23
23 3 174 l10 63 117 -7 c64 -4 119 -10 123 -14z m348 12 c-3 -64 -31 -218 -42
-224 -18 -12 -126 -11 -133 1 -5 9 8 143 20 197 5 23 24 29 108 32 26 0 47 -2
47 -6z m1852 -108 c5 -80 3 -112 -5 -117 -7 -5 -52 -7 -102 -6 -89 3 -90 3
-87 28 1 14 9 31 16 39 11 10 13 33 9 93 l-6 79 84 -3 84 -3 7 -110z m2277 80
c14 -18 54 -183 47 -194 -10 -16 -231 -15 -243 2 -6 6 -18 44 -26 82 -9 39
-19 80 -23 92 -5 18 -1 22 23 25 58 9 214 4 222 -7z m-1240 -45 c21 -10 33
-55 35 -120 l1 -35 -116 -3 c-85 -2 -119 1 -127 10 -5 7 -13 49 -17 92 l-8 79
106 -6 c58 -3 115 -11 126 -17z m-2101 -67 c3 -87 -6 -95 -101 -91 l-62 3 0
50 0 50 58 3 c52 3 57 5 57 26 0 27 9 38 30 34 11 -3 16 -20 18 -75z m-504 0
c-8 -96 -7 -95 -56 -91 -50 3 -54 15 -43 105 l6 53 50 0 50 0 -7 -67z"/>
<path d="M7554 9238 c-4 -5 -3 -43 1 -84 l7 -74 49 0 c49 0 49 0 49 33 0 17
-3 55 -6 84 l-7 52 -44 -1 c-24 0 -46 -5 -49 -10z"/>
<path d="M8114 9238 c3 -13 6 -35 6 -50 0 -25 3 -27 53 -30 38 -2 52 -7 52
-18 0 -8 -10 -16 -23 -18 -22 -3 -23 -6 -16 -60 10 -83 20 -104 46 -100 14 2
24 12 28 28 5 21 12 25 45 25 33 0 40 -4 45 -25 6 -26 44 -40 61 -23 4 4 3 40
-3 80 -10 67 -12 72 -37 75 -15 2 -27 10 -29 21 -3 14 5 17 52 17 l55 0 -5 38
c-9 62 -9 62 -73 62 l-61 0 7 -45 6 -45 -41 0 c-40 0 -40 0 -46 45 l-7 45 -61
0 c-58 0 -60 -1 -54 -22z"/>
<path d="M6453 7732 c-7 -5 -13 -93 -18 -287 -3 -154 -8 -290 -11 -302 -3 -19
-8 -20 -32 -13 -16 4 -41 6 -56 5 -17 -2 -29 2 -33 11 -7 19 -39 18 -47 -1 -4
-11 2 -15 20 -15 19 0 25 -4 20 -15 -3 -9 0 -15 9 -15 19 0 19 -16 0 -24 -8
-3 -15 -12 -15 -21 0 -8 7 -15 15 -15 8 0 15 -4 15 -10 0 -5 -9 -10 -20 -10
-30 0 -24 -20 10 -33 39 -15 38 -25 -1 -23 -18 0 -34 -5 -36 -11 -3 -7 2 -13
11 -13 9 0 16 -4 16 -10 0 -5 -7 -10 -17 -10 -9 0 -13 -3 -10 -7 4 -3 2 -12
-4 -19 -6 -8 -8 -21 -5 -30 4 -9 1 -23 -5 -31 -17 -20 11 -46 48 -46 32 0 249
31 277 40 15 4 17 12 13 39 l-6 33 111 3 111 3 11 30 c6 17 16 31 21 32 6 0
35 4 65 7 59 6 77 21 87 68 6 32 27 53 43 43 7 -4 10 -16 7 -26 -6 -23 8 -26
17 -3 3 8 10 13 15 10 5 -3 13 0 19 7 9 12 24 609 15 635 -3 8 -26 12 -64 12
l-59 0 0 -34 c0 -19 4 -37 9 -40 5 -3 12 -113 16 -244 6 -208 5 -245 -9 -287
-21 -61 -35 -87 -36 -65 0 9 -5 54 -11 100 -6 47 -12 91 -12 98 0 7 -14 12
-33 12 -31 0 -33 2 -36 43 -3 40 -5 42 -36 45 -51 5 -59 -1 -54 -43 5 -41 5
-41 84 -50 34 -4 58 -12 62 -20 7 -19 -17 -63 -50 -92 -24 -20 -25 -23 -8 -23
17 0 20 -7 19 -42 0 -36 -3 -43 -20 -43 -14 0 -22 9 -26 30 -5 27 -7 28 -14
10 -4 -11 -14 -35 -21 -53 l-13 -33 -93 2 c-51 1 -110 4 -130 7 l-38 4 0 92
c1 76 5 98 24 131 13 23 32 42 47 45 20 5 24 12 24 40 -1 34 -2 35 -48 38
l-47 3 0 -44 c0 -45 0 -45 -35 -45 -23 0 -39 6 -44 17 -16 29 -13 245 4 277
24 47 15 193 -12 176z"/>
<path d="M8115 7272 l-130 -57 -7 -85 c-3 -47 -6 -124 -7 -172 l-1 -86 -107
-25 c-60 -14 -134 -31 -165 -37 -54 -12 -56 -14 -47 -37 11 -30 -4 -95 -27
-114 -33 -27 -41 -76 -12 -71 17 3 18 -1 12 -32 -5 -31 -4 -36 12 -36 16 0 17
-2 4 -10 -12 -7 -8 -10 14 -10 21 0 26 3 19 13 -6 7 -7 37 -3 72 3 33 5 76 3
96 -2 24 2 40 12 49 21 17 29 -8 22 -70 -8 -67 7 -58 61 35 l44 75 74 0 c76 0
96 -12 49 -30 -19 -7 -37 -35 -73 -110 -27 -57 -55 -102 -65 -106 -13 -4 -16
-11 -11 -27 4 -12 8 -38 9 -58 3 -52 14 -67 32 -43 13 17 14 16 8 -17 -6 -30
39 -345 50 -357 3 -3 25 34 108 188 54 99 63 89 59 -70 -4 -178 -31 -473 -44
-481 -6 -4 -2 -10 11 -14 25 -8 25 -3 6 -90 -34 -162 -46 -258 -33 -266 10 -6
8 -12 -7 -23 -11 -9 -15 -16 -8 -16 6 0 15 5 18 10 8 13 52 13 60 0 4 -6 13
-7 23 -1 9 5 32 6 50 4 18 -3 39 0 47 7 12 10 15 9 15 -4 0 -9 -4 -16 -10 -16
-5 0 -10 -8 -10 -18 0 -26 -76 -292 -87 -303 -7 -7 -271 -91 -423 -134 -25 -7
-66 -21 -92 -31 -41 -16 -51 -16 -90 -4 -24 7 -47 17 -53 21 -5 4 -32 14 -60
22 -27 8 -72 24 -98 36 -27 12 -58 21 -69 21 -12 0 -18 3 -14 7 7 7 15 9 91
18 57 7 132 20 188 34 22 5 39 5 43 0 3 -5 -3 -9 -13 -10 -16 0 -16 -1 2 -8
14 -6 39 2 85 25 35 19 72 34 82 34 9 0 23 10 29 22 7 12 21 30 33 39 21 18
21 18 1 33 -28 22 -38 20 -57 -11 -22 -37 -72 -85 -62 -59 4 10 3 21 -3 25 -5
3 -15 75 -21 160 -8 104 -15 157 -24 163 -10 6 -3 17 27 43 42 37 36 49 -8 15
-14 -11 -28 -17 -30 -13 -2 5 2 85 9 178 7 94 13 175 13 182 1 9 22 11 81 6
l81 -6 -61 104 c-34 57 -67 109 -73 115 -13 13 -267 28 -267 16 0 -4 11 -24
25 -44 37 -55 34 -60 -37 -55 -274 19 -376 29 -395 39 -13 6 -42 8 -70 5 -26
-4 -55 -2 -63 3 -14 9 -2 27 50 80 7 6 117 139 150 180 20 25 31 30 67 30 42
0 44 -1 41 -27 -2 -22 2 -29 20 -31 17 -3 22 -10 22 -33 0 -24 4 -29 25 -29
21 0 25 5 25 31 0 22 -5 32 -20 36 -24 6 -23 -9 -5 188 13 138 18 162 35 174
11 7 20 22 20 31 0 32 12 50 31 50 25 0 27 55 2 68 -12 7 -14 17 -10 41 6 29
5 31 -22 31 -21 0 -30 -6 -34 -21 -5 -20 -11 -21 -63 -16 -31 3 -60 11 -65 18
-14 23 -38 0 -44 -44 -12 -76 -9 -80 75 -95 71 -13 93 -25 87 -47 -2 -5 -14
-12 -28 -15 -20 -5 -25 -13 -29 -55 l-5 -50 -60 -12 c-100 -19 -215 -43 -321
-69 l-102 -24 -158 40 c-88 22 -169 40 -181 40 -12 0 -25 5 -28 10 -3 6 -17
10 -30 10 -13 0 -36 5 -52 12 -22 9 -24 12 -10 15 21 5 21 4 2 39 -14 27 -14
29 5 32 11 2 20 7 20 11 0 3 21 13 46 20 42 13 48 12 56 -3 5 -9 16 -16 24
-16 15 0 55 -20 64 -32 3 -4 57 -9 120 -12 63 -2 126 -9 140 -14 17 -6 58 -6
122 2 104 12 139 26 66 26 -36 0 -47 4 -50 18 -4 16 -19 20 -83 25 -42 3 -79
7 -81 10 -2 2 -7 31 -10 64 l-7 61 -56 11 c-31 5 -69 13 -86 16 -16 3 -75 14
-130 25 -122 24 -115 25 -116 -2 0 -22 -1 -22 -9 -3 -13 30 -12 45 3 45 10 0
13 15 13 51 -1 49 -2 50 -28 46 -16 -2 -28 1 -29 7 0 6 -4 1 -9 -11 -5 -13
-14 -23 -19 -23 -6 0 -7 -15 -4 -35 4 -23 2 -35 -6 -35 -6 0 -11 -17 -11 -39
0 -22 -5 -43 -11 -46 -6 -4 -7 -19 -4 -35 3 -16 2 -31 -4 -35 -6 -3 -11 -24
-11 -46 0 -21 -4 -39 -9 -39 -6 0 -7 -16 -4 -35 4 -24 2 -35 -6 -35 -8 0 -11
-13 -10 -34 2 -19 0 -38 -4 -42 -4 -4 -7 -23 -7 -42 0 -32 -2 -34 -26 -28 -26
7 -26 6 -20 -29 5 -24 3 -35 -5 -35 -8 0 -10 15 -6 53 4 28 3 77 -2 107 -5 30
-5 60 -1 65 4 6 11 39 15 75 4 36 12 70 17 77 5 7 7 26 3 43 -4 19 -3 30 4 30
6 0 11 18 11 40 0 22 4 40 9 40 5 0 7 18 4 40 -4 28 -2 40 7 40 9 0 10 10 6
34 -4 20 -2 37 4 41 5 3 10 24 10 45 0 30 5 40 20 45 16 5 17 10 10 31 -7 17
-6 24 3 24 6 0 4 5 -6 11 -26 15 -40 1 -34 -37 l6 -33 -105 0 c-57 0 -104 4
-104 9 0 5 10 11 23 13 13 2 3 6 -23 7 -34 3 -26 5 35 9 77 6 74 6 -73 15 -84
4 -155 7 -157 5 -3 -4 4 -48 21 -126 3 -18 11 -23 37 -23 18 0 42 -7 54 -15
19 -13 23 -13 37 0 16 17 30 20 21 6 -3 -6 10 -17 30 -27 36 -17 44 -29 23
-37 -10 -3 -10 -7 0 -20 29 -34 52 -91 42 -101 -15 -15 -12 -24 13 -32 l22 -8
-25 -7 c-17 -5 -19 -7 -7 -8 17 -1 17 -2 2 -18 -13 -12 -41 -17 -116 -20 l-98
-4 -21 40 c-22 44 -26 46 -65 31 -19 -7 -24 -15 -21 -32 3 -13 7 -49 10 -80
l6 -58 -29 6 c-34 7 -46 -7 -46 -56 0 -32 -3 -35 -33 -38 -32 -3 -33 -5 -30
-40 3 -37 3 -37 -37 -37 l-40 0 -1 45 c-2 61 1 65 51 84 32 13 51 29 77 69 19
29 40 51 46 49 8 -1 12 11 12 33 0 21 -5 35 -12 35 -13 0 -323 -97 -406 -127
-24 -8 -44 -14 -46 -12 -1 2 -21 34 -45 72 -24 37 -47 67 -52 67 -20 0 -31
-44 -24 -102 l7 -60 -40 4 c-22 2 -38 0 -36 -4 2 -3 -6 -8 -18 -10 -23 -3 -42
-32 -54 -83 -6 -27 -9 -23 -27 45 -21 76 -28 210 -14 263 7 26 10 27 66 27 81
0 94 6 76 33 -7 12 -18 49 -24 82 -6 34 -18 65 -28 73 -10 7 -12 12 -4 12 21
0 1 20 -22 21 -20 1 -20 2 3 9 14 4 19 8 11 9 -11 1 -10 5 5 16 18 14 18 14
-11 15 -26 1 -27 3 -10 10 13 6 -8 9 -65 9 -58 1 -80 -2 -70 -9 12 -7 8 -10
-15 -10 l-30 -1 25 -11 c14 -5 49 -7 77 -5 29 3 55 1 58 -4 4 -5 -11 -9 -32
-9 -28 0 -34 -3 -23 -10 11 -7 4 -10 -27 -11 -95 -3 -106 -1 -78 11 14 6 0 8
-45 8 -36 -1 -53 -3 -37 -5 15 -2 27 -9 27 -14 0 -8 -33 -12 -97 -13 -13 0
-23 -4 -23 -8 0 -5 37 -5 82 -2 60 5 79 4 74 -4 -4 -7 -32 -12 -67 -12 -42 0
-58 -4 -56 -12 1 -7 -5 -14 -13 -14 -43 -4 -26 -8 55 -14 l90 -6 -90 -2 c-49
-1 -95 -6 -100 -10 -14 -9 -17 -50 -4 -57 5 -4 9 1 9 9 0 14 18 16 119 16 65
0 134 3 152 6 26 4 30 3 19 -5 -8 -6 -41 -13 -73 -17 -31 -4 -60 -11 -63 -15
-3 -5 -39 -9 -80 -9 -53 0 -74 -4 -74 -13 0 -18 -38 -39 -59 -32 -12 3 -21 0
-25 -10 -3 -8 -12 -15 -21 -15 -9 0 -15 -9 -15 -25 0 -19 -5 -25 -21 -25 -19
0 -20 -4 -15 -35 6 -28 4 -35 -9 -35 -8 0 -15 -7 -15 -15 0 -8 7 -15 15 -15
22 0 19 -46 -5 -70 -11 -11 -31 -20 -44 -20 -23 0 -25 -5 -28 -47 -3 -44 -5
-48 -31 -51 -16 -2 -31 -10 -34 -18 -6 -16 -39 -19 -48 -3 -4 6 2 13 14 16 27
7 28 43 1 50 -11 3 -20 11 -20 18 0 7 -9 15 -20 18 -25 7 -26 27 -1 34 23 6
21 37 -3 41 -55 11 -117 -28 -66 -41 24 -6 27 -37 4 -37 -9 0 -18 -9 -21 -20
-3 -11 -12 -20 -19 -20 -8 0 -14 -10 -14 -25 0 -18 5 -25 20 -25 11 0 20 -5
20 -11 0 -6 -9 -13 -20 -16 -12 -3 -20 -14 -20 -25 0 -14 -5 -18 -15 -15 -8 4
-17 2 -20 -3 -8 -12 -55 -13 -55 -1 0 5 9 11 20 14 26 7 26 27 0 34 -11 3 -20
9 -20 13 0 4 -9 10 -20 13 -23 6 -27 27 -5 27 8 0 15 7 15 15 0 11 -12 15 -50
15 -36 0 -50 -4 -50 -14 0 -7 9 -16 20 -19 23 -6 27 -27 5 -27 -8 0 -15 -4
-15 -10 0 -5 -9 -10 -20 -10 -28 0 -38 29 -45 130 -7 90 -9 94 -67 116 -10 3
-18 10 -18 15 0 5 -9 9 -20 9 -11 0 -20 7 -20 15 0 8 -7 15 -15 15 -8 0 -15 5
-15 10 0 6 -9 10 -20 10 -14 0 -20 7 -20 21 0 12 -8 23 -20 26 -11 3 -21 12
-21 19 -1 8 -3 19 -4 24 -1 6 -3 17 -4 25 0 8 -8 15 -16 15 -7 0 -18 6 -22 14
-4 8 -17 16 -28 19 -19 5 -19 5 3 12 15 5 21 13 18 22 -3 8 -6 28 -6 45 0 23
-4 29 -15 24 -9 -3 -15 0 -15 9 0 8 5 15 11 15 6 0 9 12 7 28 -2 15 -8 26 -16
24 -16 -3 -28 29 -36 103 -13 107 -12 105 -69 105 -48 0 -50 1 -31 16 18 15
18 15 -6 10 -14 -3 -47 -6 -75 -7 -27 -1 -42 -3 -32 -6 34 -9 16 -22 -40 -28
-78 -9 -113 -18 -116 -30 -1 -5 8 -11 21 -13 37 -6 25 -22 -17 -22 -33 0 -40
4 -43 23 -2 12 -13 26 -25 32 -13 5 -23 13 -23 17 0 19 -25 4 -72 -44 l-51
-52 17 -116 c15 -108 15 -116 -1 -128 -15 -10 -16 -17 -6 -43 12 -31 8 -59 -9
-59 -5 0 -6 5 -3 10 3 6 -3 10 -14 10 -12 0 -21 -4 -21 -10 0 -5 -7 -10 -15
-10 -8 0 -15 -7 -15 -15 0 -8 -7 -15 -15 -15 -8 0 -15 -4 -15 -10 0 -23 -89
-7 -93 16 -1 5 -8 8 -14 8 -12 -2 -17 9 -14 29 0 4 -6 7 -14 7 -8 0 -15 -4
-15 -10 0 -5 -4 -10 -10 -10 -5 0 -10 7 -10 15 0 10 -11 15 -35 15 -19 0 -35
5 -35 10 0 6 -11 10 -24 10 -13 0 -27 6 -29 13 -4 10 -6 10 -6 0 -1 -7 -15
-14 -33 -14 -31 -2 -31 -2 -5 -6 23 -4 27 -8 24 -31 -3 -21 -10 -28 -30 -30
-15 -2 -27 1 -27 7 0 6 10 12 23 12 14 1 16 3 6 6 -8 2 -41 0 -72 -5 -55 -9
-95 -1 -66 12 8 3 -5 4 -29 2 -35 -3 -41 -2 -32 9 6 8 21 16 33 18 14 3 9 5
-13 6 l-35 1 23 18 23 18 -37 -4 c-27 -3 -41 0 -50 13 -10 14 -22 15 -67 10
-47 -6 -54 -10 -50 -26 3 -12 0 -19 -8 -19 -8 0 -5 -6 7 -14 18 -14 18 -15 -9
-25 -23 -9 -27 -15 -22 -32 5 -15 4 -19 -4 -14 -7 4 -11 16 -9 28 2 13 -2 21
-9 20 -7 -2 -19 -4 -25 -5 -7 -2 -14 7 -16 18 -3 19 -7 21 -38 14 -26 -6 -37
-5 -40 5 -5 13 -57 29 -81 26 -7 -1 -13 2 -13 6 0 4 -16 9 -35 10 -19 1 -35
-3 -35 -9 0 -5 7 -7 15 -4 13 5 12 1 -2 -19 -23 -31 -39 -31 -47 0 -7 27 -20
30 -63 14 -22 -8 -30 -7 -39 5 -17 24 -89 21 -114 -4 -26 -26 -46 -25 -53 1
-6 23 -22 23 -111 -3 -33 -9 -36 -13 -19 -16 41 -6 19 -32 -28 -32 -20 0 -23
-10 -13 -58 5 -23 10 -28 25 -25 10 3 19 1 19 -5 0 -12 -24 -22 -51 -22 -10 0
-19 -7 -19 -15 0 -9 -7 -18 -15 -21 -24 -9 -19 -53 7 -63 22 -8 22 -8 3 -14
-11 -3 -35 -8 -52 -12 -45 -9 -42 -25 4 -18 45 7 38 -11 -8 -21 -26 -5 -29 -9
-23 -28 9 -30 6 -29 45 -18 18 6 45 10 58 10 23 0 24 -1 6 -13 -10 -8 -15 -19
-12 -24 4 -6 -12 -16 -38 -23 -45 -13 -60 -29 -27 -31 11 0 7 -4 -10 -11 -20
-7 -28 -17 -28 -33 0 -12 -7 -26 -16 -29 -9 -4 -14 -9 -10 -13 3 -4 -4 -17
-16 -30 -12 -13 -17 -23 -12 -23 5 0 -1 -9 -14 -18 l-24 -18 17 -79 c18 -88
16 -102 -17 -107 -16 -2 -22 -9 -20 -21 2 -9 -4 -20 -13 -23 -9 -4 -15 -18
-15 -35 0 -18 -5 -29 -14 -29 -8 0 -17 -7 -20 -16 -3 -8 -10 -12 -16 -9 -15
10 -12 25 6 25 9 0 14 6 11 13 -4 12 -41 13 -85 2 -24 -6 -30 -30 -9 -38 6 -3
2 -6 -10 -6 -12 -1 -25 -5 -28 -11 -3 -5 -17 -10 -31 -10 -20 0 -25 -4 -22
-22 4 -31 -20 -34 -28 -3 -6 25 -10 27 -45 21 -21 -3 -49 -11 -62 -17 -23 -10
-24 -16 -21 -73 4 -63 21 -143 35 -161 5 -6 11 -30 15 -53 6 -39 5 -41 -22
-47 -41 -9 -59 -20 -59 -36 0 -8 -15 -16 -35 -19 -19 -4 -45 -12 -58 -19 -12
-6 -37 -14 -55 -16 -32 -4 -244 -60 -282 -75 -12 -5 2 -7 35 -5 30 2 47 1 37
-1 -10 -3 -30 -12 -45 -20 -43 -22 -7 -17 147 21 77 19 145 35 151 35 5 0 10
-10 10 -21 0 -20 4 -21 42 -15 24 4 70 13 103 21 33 8 110 22 170 30 61 8 120
17 133 21 17 5 22 2 22 -12 0 -11 7 -28 15 -38 14 -18 19 -18 67 -7 29 7 103
23 163 36 61 14 136 31 168 39 46 12 57 12 57 1 0 -8 -19 -16 -50 -20 -49 -7
-50 -8 -50 -40 0 -29 -4 -34 -29 -40 -18 -4 -28 -12 -27 -22 1 -11 -15 -20
-51 -31 -49 -13 -52 -16 -55 -50 -2 -29 -8 -37 -33 -45 -16 -5 -37 -15 -45
-22 -8 -7 -41 -18 -72 -25 -32 -6 -58 -15 -58 -20 0 -5 -16 -12 -35 -16 -32
-6 -35 -9 -35 -40 0 -21 -8 -42 -20 -54 -11 -11 -20 -26 -20 -34 0 -12 -71
-46 -98 -46 -8 0 -12 -12 -10 -34 1 -24 -6 -44 -26 -70 l-27 -36 25 0 c15 0
26 5 26 10 0 6 4 10 9 10 10 0 26 -58 41 -154 12 -77 5 -92 -36 -74 -17 8 -27
8 -36 0 -12 -10 -124 -42 -147 -42 -5 0 -19 10 -31 22 -19 20 -24 21 -65 10
-58 -15 -65 -15 -65 2 0 25 -19 28 -64 11 -25 -10 -49 -14 -55 -11 -14 9 -93
-12 -106 -28 -16 -19 -41 -26 -54 -13 -8 8 -11 8 -11 -1 0 -7 -5 -12 -11 -12
-6 0 -9 6 -6 13 3 8 1 20 -3 27 -6 10 -14 4 -29 -21 -27 -44 -27 -47 9 -67 16
-9 30 -20 30 -24 0 -11 -34 -15 -57 -6 l-23 7 0 -2239 0 -2240 619 0 c403 0
622 4 626 10 3 5 12 10 18 10 7 0 6 -4 -3 -10 -10 -6 50 -10 178 -10 105 0
192 2 192 5 0 5 -21 41 -67 113 -14 22 -16 23 -33 7 -21 -19 -50 -14 -50 8 0
7 68 55 151 107 83 52 153 100 156 106 7 20 -25 114 -56 163 -16 25 -37 73
-47 106 -9 33 -24 71 -32 85 -14 22 -151 230 -158 239 -2 2 -27 -11 -57 -28
-30 -17 -59 -31 -64 -31 -5 0 -14 15 -21 33 -7 19 -15 28 -20 21 -4 -6 -29
-23 -57 -39 -27 -15 -66 -37 -85 -48 -24 -14 -30 -15 -20 -4 15 15 51 38 122
77 44 24 47 39 15 76 l-23 26 -88 -52 c-95 -56 -90 -56 -122 3 l-15 28 -69
-38 c-39 -20 -81 -46 -95 -58 -26 -20 -26 -21 -11 -63 l15 -43 -79 -50 -80
-51 3 -84 c3 -46 1 -86 -2 -90 -3 -3 -6 -10 -6 -15 0 -16 -123 -90 -130 -78
-4 6 -19 7 -35 4 -24 -5 -28 -3 -28 17 -1 13 -4 37 -7 54 -7 30 -4 34 42 60
26 15 50 29 51 30 5 3 -18 74 -23 74 -2 0 -28 -13 -57 -29 l-54 -30 -21 32
c-11 18 -41 72 -66 120 l-45 88 36 23 c20 12 60 35 87 51 103 58 145 88 145
102 0 19 -57 207 -75 247 -10 22 -10 35 -2 54 14 31 72 89 97 97 11 4 21 16
21 28 1 17 2 18 6 5 5 -22 10 -22 29 -3 12 12 12 18 2 35 -12 19 -10 24 15 46
15 13 38 24 51 24 28 0 103 36 108 51 3 9 9 9 25 0 12 -6 30 -11 40 -11 15 1
13 3 -6 14 l-24 14 21 6 c12 4 22 12 22 17 0 5 18 9 40 9 27 0 40 4 40 14 0
15 73 46 107 46 13 0 24 8 28 21 7 23 88 64 105 54 6 -3 10 5 10 19 0 31 -14
33 -58 6 -18 -11 -40 -20 -48 -20 -9 0 -27 -9 -41 -20 -14 -11 -33 -20 -42
-20 -13 0 -13 2 -2 9 11 7 10 11 -5 20 -16 10 -13 11 19 6 34 -5 54 8 25 17
-15 5 83 38 113 38 17 0 19 3 10 14 -14 17 -7 22 33 24 34 2 58 20 49 36 -3 6
8 -2 25 -18 18 -17 32 -31 32 -32 0 -1 -10 0 -22 2 -13 3 -3 -4 22 -14 39 -16
48 -16 66 -5 12 8 31 16 43 18 11 2 31 10 44 17 13 7 46 24 73 38 27 14 50 28
52 33 5 11 52 8 52 -3 0 -6 11 -15 24 -21 19 -9 31 -7 67 13 71 39 77 40 103
11 l24 -26 61 28 c34 16 61 34 61 42 0 7 -16 29 -35 49 -19 19 -35 40 -35 45
0 11 -50 1 -65 -12 -5 -5 -16 -9 -24 -9 -8 0 -23 -8 -33 -17 -18 -16 -20 -15
-40 5 -22 21 -22 22 -3 36 11 8 39 25 62 37 l42 22 -29 36 c-17 19 -30 41 -30
48 0 6 -9 14 -19 18 -19 6 -38 41 -28 51 3 3 15 6 28 7 13 1 30 7 37 14 18 17
45 5 39 -18 -4 -13 0 -19 11 -19 36 0 51 32 23 49 -25 16 4 19 184 20 223 1
322 5 331 14 4 4 20 7 35 7 21 0 27 -4 23 -15 -4 -10 0 -15 11 -15 9 0 14 -4
10 -9 -3 -5 -1 -12 5 -16 13 -8 9 -55 -5 -54 -22 3 -35 -1 -35 -11 0 -14 25
-12 68 6 l37 16 -33 27 c-31 27 -33 41 -5 41 8 0 33 9 56 19 146 66 226 94
272 95 71 2 141 32 153 65 7 19 23 31 62 46 62 24 67 30 46 54 -16 17 -13 20
48 46 82 35 96 30 96 -33 0 -47 -1 -50 -40 -67 -41 -19 -49 -30 -27 -38 27
-12 -19 -27 -61 -21 l-43 6 3 -33 c3 -30 -2 -37 -37 -61 -22 -16 -43 -28 -47
-28 -4 0 -122 -52 -263 -116 l-257 -115 -27 23 c-14 13 -28 24 -30 25 -2 2 1
8 7 16 8 10 7 13 -6 13 -12 0 -18 -9 -19 -28 0 -15 3 -25 7 -23 5 3 11 1 15
-5 3 -5 1 -10 -6 -10 -9 0 -9 -3 0 -14 12 -14 -28 -37 -202 -115 -54 -24 -66
-43 -46 -69 13 -15 12 -16 -3 -4 -14 11 -21 10 -45 -5 -15 -9 -30 -20 -33 -24
-3 -3 -16 -10 -30 -14 -33 -9 -94 -37 -100 -45 -3 -4 -14 -10 -25 -14 -19 -7
-19 -8 4 -27 32 -26 21 -45 -43 -79 -52 -27 -55 -37 -26 -68 22 -23 40 -29 40
-12 0 6 -4 10 -10 10 -5 0 -10 7 -10 16 0 14 7 15 44 10 34 -5 52 -2 80 13 20
12 36 17 36 13 0 -5 -11 -15 -25 -22 -14 -7 -25 -20 -25 -27 0 -10 -7 -12 -22
-8 -15 4 -19 3 -10 -3 10 -7 10 -11 -3 -22 -8 -7 -15 -18 -15 -24 0 -11 -79
-61 -168 -105 -23 -12 -42 -25 -42 -29 0 -4 24 -34 53 -68 l53 -61 49 18 c28
10 81 33 120 53 64 31 71 33 87 19 14 -12 23 -13 49 -4 39 14 35 14 53 -5 13
-13 22 -14 51 -4 28 9 39 9 56 -3 16 -12 29 -13 56 -5 28 7 39 6 50 -5 12 -11
23 -12 53 -5 32 8 42 7 55 -6 19 -19 15 -19 54 -5 26 9 35 8 50 -5 15 -13 23
-14 51 -5 31 11 34 10 70 -30 27 -30 42 -40 56 -35 18 5 18 5 2 -9 -24 -19
-23 -26 8 -58 23 -24 29 -26 62 -17 20 6 76 30 125 55 70 36 99 46 143 47 52
1 54 0 54 -24 0 -14 -7 -33 -15 -44 -18 -23 -29 -97 -21 -131 8 -32 73 -67 85
-46 5 8 17 11 30 6 14 -4 31 -1 46 9 25 17 65 84 65 110 0 8 16 51 35 96 19
45 35 88 35 96 0 18 86 58 193 89 46 13 131 47 190 74 58 28 112 51 120 51 7
0 18 5 24 11 11 11 37 -8 45 -33 3 -7 9 -8 19 -2 18 11 30 12 50 3 9 -5 21 -3
27 3 9 9 15 9 23 1 23 -23 2 -47 -76 -88 -144 -74 -167 -92 -161 -123 3 -15
10 -63 16 -107 17 -122 28 -191 44 -295 23 -143 28 -129 -63 -185 -85 -53
-102 -68 -97 -81 3 -9 13 -68 21 -132 17 -132 50 -365 65 -462 5 -36 12 -91
16 -122 l6 -58 669 0 c368 0 669 3 669 7 0 4 -30 37 -66 74 -55 56 -63 67 -48
73 10 4 15 4 11 0 -4 -4 -2 -13 4 -21 9 -10 15 -10 25 -2 18 15 18 30 0 23
-13 -5 -13 -2 -3 19 6 14 15 23 19 21 11 -7 10 14 -3 37 -8 16 -7 23 3 32 8 7
27 32 43 57 29 46 44 130 23 130 -6 0 -8 3 -5 6 4 4 13 1 22 -6 12 -10 18 -8
35 11 10 13 19 29 19 34 0 6 -8 0 -18 -12 -22 -26 -31 -29 -31 -10 0 6 13 19
28 28 l28 16 13 -55 c7 -30 17 -112 22 -181 5 -69 13 -155 18 -191 4 -36 6
-71 4 -77 -4 -10 382 -13 1908 -13 1507 1 1911 3 1898 13 -110 86 -138 111
-133 119 3 5 11 7 17 5 7 -2 28 1 47 8 19 7 41 10 49 7 9 -3 11 1 7 16 -4 13
-2 20 6 19 42 -1 68 5 68 16 1 39 -14 36 442 74 63 5 82 3 103 -11 48 -31 153
-29 284 5 140 36 161 44 161 63 0 13 30 116 36 125 6 8 154 -111 154 -124 0
-12 -40 -74 -178 -276 -18 -26 -32 -50 -32 -53 0 -3 223 -6 496 -6 276 0 493
4 490 9 -3 4 2 15 12 24 15 14 19 14 41 -4 13 -10 18 -19 13 -19 -6 0 -14 5
-17 10 -10 15 -35 12 -35 -5 0 -12 13 -15 56 -15 48 0 59 4 76 25 19 25 20 25
48 8 16 -9 27 -20 24 -25 -3 -4 15 -8 40 -8 25 0 46 3 46 8 0 4 4 13 9 21 7
12 14 10 36 -8 27 -21 33 -21 460 -21 l432 0 64 108 c35 59 65 112 66 117 2 6
-18 25 -43 43 -34 25 -44 38 -38 50 18 45 15 57 -26 85 -22 16 -40 34 -40 41
0 8 -20 30 -45 50 -25 21 -45 43 -45 50 0 7 -20 28 -45 46 -38 29 -45 38 -41
60 5 21 -2 30 -39 58 -25 18 -45 39 -45 46 0 19 -69 70 -95 71 -11 0 -33 10
-49 23 -26 20 -28 25 -17 49 14 31 52 73 66 72 6 0 26 -13 44 -29 l35 -30 23
21 c12 12 34 39 49 61 l27 38 -21 23 c-21 22 -21 24 -4 42 17 19 17 19 -6 0
-21 -17 -24 -17 -39 -3 -15 15 -13 20 16 56 37 47 38 56 11 75 -17 12 -19 17
-8 29 43 46 53 61 36 55 -25 -9 -45 20 -30 44 16 26 9 35 -43 60 -41 19 -83
55 -74 63 2 2 29 20 60 39 39 25 60 33 70 26 21 -13 26 -11 50 22 18 26 20 35
11 50 -10 16 -8 21 18 34 39 20 57 19 87 -5 14 -11 29 -20 32 -20 4 0 24 23
46 51 l39 52 -27 21 c-27 22 -27 22 -11 57 10 18 18 35 19 37 1 2 19 -7 38
-18 20 -12 41 -19 46 -15 20 12 111 150 111 168 0 10 -9 21 -20 24 -11 3 -20
14 -20 24 0 23 -16 25 -28 3 -8 -14 -16 -12 -60 17 -29 19 -52 39 -52 45 0 14
62 94 73 94 5 0 22 -9 39 -21 16 -12 30 -20 31 -18 1 2 8 13 14 24 7 11 31 52
54 90 66 112 178 299 188 314 7 11 24 4 85 -34 74 -46 77 -47 91 -29 8 11 15
22 15 27 0 15 37 6 73 -18 l37 -25 -1 130 c-1 89 -5 130 -13 130 -6 0 -22 9
-35 19 -22 17 -23 19 -7 49 22 42 21 49 -14 67 -16 9 -30 20 -30 25 0 6 23 47
50 91 l50 81 0 96 0 97 -70 39 c-39 22 -70 43 -70 48 0 12 3 11 70 -27 34 -19
64 -35 66 -35 2 0 4 27 4 59 0 59 0 60 -40 84 -22 13 -37 26 -34 29 3 4 21 -3
40 -14 l35 -20 -2 83 -3 84 -67 35 c-37 18 -78 42 -91 51 -21 17 -22 18 -5 37
24 26 22 29 -23 52 -41 21 -70 26 -70 12 0 -5 -8 -18 -18 -30 l-19 -21 -43 21
-43 21 -27 -33 -27 -34 -37 22 c-20 12 -42 19 -50 16 -13 -5 -111 40 -149 68
-17 13 -17 15 -3 27 24 20 20 27 -24 54 -39 23 -39 23 -19 41 l20 17 -24 20
c-14 10 -28 19 -31 19 -7 0 -68 41 -76 51 -8 11 -91 58 -150 85 -30 14 -101
49 -158 76 -56 28 -105 48 -109 45 -8 -9 -10 -8 82 -57 44 -23 84 -46 88 -50
5 -4 -2 -17 -14 -29 -17 -15 -20 -24 -12 -32 8 -8 14 -5 23 10 11 22 12 22
108 -30 91 -49 222 -142 222 -158 0 -4 -11 -18 -24 -30 l-25 -23 -33 19 c-18
10 -33 25 -33 33 0 7 -28 28 -62 46 -50 28 -63 31 -72 20 -9 -11 -2 -19 35
-41 l46 -27 -25 -24 c-32 -30 -37 -30 -29 -1 5 21 4 21 -15 5 -25 -23 -35 -23
-84 3 l-41 20 23 25 c14 15 29 22 40 19 11 -4 22 1 28 14 17 31 14 46 -5 30
-15 -12 -16 -11 -10 9 9 26 -1 28 -26 5 -18 -16 -22 -16 -70 11 l-50 28 -30
-28 -30 -29 -99 52 c-86 46 -102 51 -120 40 -16 -10 -28 -7 -76 18 -119 63
-124 66 -112 81 7 8 10 16 7 19 -2 2 -44 24 -92 48 l-88 44 31 22 c37 27 30
43 -25 63 -19 6 -34 17 -34 23 0 5 -49 34 -108 62 -100 49 -155 71 -277 109
-27 9 -76 27 -108 40 -32 13 -67 24 -77 24 -10 0 -21 4 -25 9 -3 5 -18 12 -34
16 -16 3 -35 13 -42 21 -16 19 -7 18 64 -10 34 -13 105 -38 157 -54 98 -31
226 -81 390 -152 52 -22 100 -38 106 -36 6 2 31 -5 55 -15 41 -19 89 -19 89 0
0 8 -90 51 -108 51 -5 0 -64 25 -133 56 -149 67 -278 116 -301 116 -10 -1 -18
3 -18 8 0 5 -17 12 -37 16 -21 4 -49 12 -63 19 -14 7 -31 10 -37 8 -7 -3 -13
0 -13 6 0 5 -16 13 -35 17 -19 3 -38 10 -41 15 -3 5 -18 9 -35 9 -16 0 -29 5
-29 11 0 8 -5 7 -15 -1 -9 -7 -13 -15 -11 -18 3 -2 -1 -17 -9 -33 -18 -35 -19
-32 3 -56 17 -20 111 -58 232 -95 36 -10 74 -23 85 -28 11 -6 46 -19 78 -30
32 -10 91 -37 131 -58 45 -24 83 -38 97 -36 13 3 30 0 38 -5 12 -8 12 -13 -3
-35 -16 -25 -17 -26 -52 -11 -48 20 -53 19 -64 -10 -13 -34 -35 -41 -65 -21
-34 22 -39 21 -58 -19 -21 -44 -22 -40 7 -58 23 -15 26 -15 50 4 48 38 107 -3
61 -41 -22 -18 -19 -27 15 -47 21 -12 28 -23 24 -35 -4 -13 10 -25 63 -52 74
-37 115 -65 97 -66 -12 0 -222 106 -238 121 -5 5 -4 15 4 24 15 18 15 17 -27
39 -46 23 -60 20 -72 -15 -15 -45 -15 -47 20 -65 23 -11 30 -21 26 -35 -4 -15
8 -26 64 -55 71 -37 80 -48 54 -58 -8 -3 -15 -15 -15 -26 0 -11 -4 -20 -10
-20 -5 0 -10 -7 -10 -16 0 -11 6 -14 20 -9 12 4 28 1 36 -6 12 -9 23 -9 55 1
37 12 41 12 54 -7 8 -11 28 -26 45 -33 33 -14 34 -17 20 -55 -8 -20 -14 -24
-32 -20 -17 4 -31 -2 -52 -24 -27 -29 -28 -29 -8 -40 12 -6 30 -11 41 -11 11
0 23 -5 26 -10 4 -6 25 -20 47 -31 30 -15 37 -24 29 -32 -20 -20 -12 -36 29
-57 22 -11 40 -24 40 -29 0 -8 -66 -71 -74 -71 -2 0 -2 10 2 22 5 22 5 22 -27
-3 -41 -30 -52 -36 -72 -42 -10 -3 -20 -22 -24 -44 -4 -21 -15 -56 -25 -78
-10 -22 -21 -55 -25 -72 -3 -18 -13 -33 -20 -33 -7 0 -16 -6 -18 -12 -3 -7 -6
-3 -6 9 -1 12 -6 23 -13 25 -14 5 -15 105 -1 161 4 17 6 17 30 2 33 -22 39
-14 10 13 l-24 22 -25 -22 c-14 -13 -43 -40 -66 -60 -44 -41 -58 -47 -48 -23
8 22 -8 18 -30 -7 -11 -13 -45 -45 -75 -72 -98 -89 -252 -237 -248 -240 2 -2
54 -31 114 -65 l110 -61 18 60 c21 68 31 72 85 35 20 -14 40 -25 45 -25 12 0
87 -49 87 -58 0 -4 -16 -25 -35 -46 -19 -22 -35 -42 -35 -44 0 -9 55 -48 104
-74 28 -16 44 -29 36 -29 -8 -1 -28 -2 -45 -3 -28 -1 -30 -4 -48 -81 -10 -44
-25 -104 -33 -132 -14 -51 -16 -53 -49 -53 -18 0 -36 3 -39 8 -2 4 2 34 10 67
20 88 19 95 -16 95 -26 0 -30 3 -30 29 0 30 -14 41 -51 41 -15 0 -19 5 -15 18
3 9 8 34 12 55 l6 37 -35 0 c-35 0 -36 0 -47 -57 -15 -76 -23 -103 -32 -103
-5 0 -22 0 -39 0 -32 0 -32 0 -25 43 4 23 10 61 13 85 l6 43 -34 -3 -33 -3
-26 -127 c-15 -69 -30 -133 -33 -142 -8 -20 -65 -22 -73 -2 -3 8 2 48 10 89 9
42 16 90 16 107 0 28 -3 30 -35 30 -31 0 -35 2 -30 23 7 33 25 139 25 149 0 4
-18 8 -39 8 l-39 0 -11 -67 c-29 -177 -54 -309 -61 -323 -8 -17 -58 -26 -70
-13 -4 4 1 55 11 113 9 58 15 107 12 110 -2 3 -19 5 -36 5 -30 0 -32 3 -35 42
-3 41 19 167 37 215 8 22 67 293 78 363 3 17 9 35 13 40 9 10 23 65 35 133 5
30 4 32 -13 23 -10 -5 -41 -29 -68 -53 -27 -24 -130 -109 -229 -188 -99 -79
-209 -169 -245 -199 -36 -31 -90 -76 -120 -101 -30 -25 -64 -53 -75 -62 -11
-9 -65 -53 -120 -99 -55 -45 -118 -98 -140 -118 -67 -60 -174 -153 -198 -171
-21 -17 -24 -16 -89 21 -37 21 -105 57 -150 80 -46 24 -99 53 -118 64 -19 12
-163 88 -320 168 -371 190 -410 211 -410 218 0 7 56 46 270 190 197 131 243
159 268 159 13 0 14 2 4 9 -10 6 -9 10 7 14 12 3 21 1 21 -4 0 -5 7 -9 15 -9
18 0 19 12 3 29 -11 10 -9 11 5 5 14 -5 16 -13 11 -39 -7 -37 25 -96 63 -116
13 -7 21 -14 19 -16 -2 -3 -14 1 -26 7 -19 10 -21 10 -11 -7 6 -12 6 -25 0
-34 -18 -28 -8 -29 34 -4 51 29 82 33 73 9 -3 -9 -6 -22 -6 -29 0 -8 -10 -15
-22 -17 -18 -2 -23 -10 -25 -37 -1 -23 2 -30 7 -21 5 8 6 18 4 22 -3 4 -1 8 5
8 6 0 8 -12 5 -30 -7 -34 7 -57 46 -72 14 -6 20 -12 13 -15 -19 -7 -15 -23 5
-23 16 0 112 -98 112 -115 0 -3 23 -35 51 -70 55 -71 59 -72 150 -54 30 5 88
16 129 24 63 11 165 41 179 51 2 2 0 20 -4 40 l-6 37 -72 -7 c-40 -3 -98 -11
-130 -18 -32 -6 -59 -9 -62 -7 -4 5 -31 220 -37 294 -3 36 -1 40 22 43 49 7
44 21 -6 16 -42 -5 -57 -1 -107 26 -32 18 -60 37 -62 44 -10 28 -40 348 -34
352 4 2 11 -6 15 -18 8 -26 91 -158 99 -158 6 0 -46 100 -130 250 -100 179
-107 197 -96 251 6 28 11 68 11 91 0 22 7 86 15 142 8 55 17 132 19 169 2 37
7 71 11 75 5 4 5 1 0 -7 -5 -9 -4 -12 3 -7 7 4 7 14 -3 32 -8 17 -10 37 -5 62
4 20 11 63 15 94 l6 58 -44 -19 c-24 -11 -53 -24 -63 -29 -140 -76 -664 -328
-670 -323 -5 5 -65 28 -134 51 -69 24 -131 48 -139 54 -10 8 19 18 110 38 68
16 139 31 157 35 21 3 31 10 28 18 -2 7 0 32 5 55 8 35 7 46 -6 59 -9 9 -15
11 -15 4 0 -7 -9 -11 -20 -10 -14 1 -20 8 -20 25 0 16 5 23 18 21 43 -4 52 1
52 29 0 34 18 59 45 64 15 2 21 14 26 45 3 24 8 46 12 49 4 4 1 14 -6 22 -9
12 -9 16 1 19 6 3 12 14 11 26 0 12 -3 16 -6 10 -7 -18 -23 -16 -23 2 0 18
-16 20 -23 3 -3 -8 -6 -5 -6 5 -1 10 -5 15 -11 12 -5 -3 -10 -3 -10 2 2 26 86
330 127 453 12 37 14 122 13 490 0 314 -4 453 -12 471 -11 24 -20 28 -82 35
l-71 9 -1 80 -1 80 -41 9 c-38 9 -42 13 -42 41 0 30 1 30 40 27 l40 -4 0 55 0
55 -52 4 c-29 3 -57 0 -63 -4 -6 -6 -3 -7 8 -3 15 6 17 1 17 -45 l0 -53 -37 7
c-21 3 -53 6 -71 6 -20 0 -31 4 -27 10 4 6 12 10 18 9 33 -4 58 2 51 12 -3 6
-19 9 -35 7 -26 -4 -28 -2 -31 31 -3 33 -6 36 -33 36 -16 0 -31 3 -32 8 -8 21
-1 37 14 37 13 0 14 -3 5 -12 -17 -17 -15 -29 3 -22 8 4 15 12 15 20 0 8 6 14
13 15 6 0 3 4 -8 8 -11 5 -28 4 -38 -1 -21 -11 -40 -1 -33 18 3 7 1 16 -5 20
-6 3 -8 13 -5 21 4 10 0 13 -12 11 -11 -2 -18 -14 -19 -33 -1 -17 0 -24 3 -17
3 6 10 12 16 12 6 0 6 -6 -2 -15 -6 -8 -15 -14 -18 -13 -18 2 -32 -3 -32 -11
0 -5 9 -7 20 -4 11 3 20 0 20 -6 0 -10 -21 -16 -42 -12 -5 0 -8 -6 -8 -14 0
-16 -12 -20 -23 -8 -4 3 1 15 10 25 14 15 14 19 3 16 -8 -2 -18 -12 -23 -22
-11 -28 -18 -14 -11 22 6 28 9 30 40 25 l34 -6 0 47 c0 42 2 46 25 46 14 0 25
-3 25 -7 0 -5 90 -7 200 -5 l200 3 0 -46 0 -45 45 0 45 0 0 139 0 139 -77 9
c-57 8 -67 11 -36 12 44 1 64 15 37 25 -9 3 -14 12 -12 18 10 28 -25 42 -121
49 -141 12 -135 13 -276 -49z m2 -376 c-3 -8 -3 -17 0 -20 3 -3 5 -41 4 -84
l-2 -79 30 5 c17 2 31 8 31 12 0 4 -11 5 -25 2 -14 -2 -25 0 -25 6 0 6 10 8
22 4 15 -4 19 -2 13 8 -5 8 -3 11 6 8 8 -2 15 -17 17 -31 3 -25 1 -27 -37 -27
-22 0 -43 -5 -47 -11 -4 -8 -9 -8 -17 0 -8 8 -5 15 9 26 18 15 18 15 -6 13
-14 -2 -26 2 -27 7 -2 6 5 10 15 11 36 2 35 7 -3 13 -34 5 -41 10 -46 36 -5
21 -7 24 -8 9 0 -13 -9 -24 -21 -27 -25 -6 -25 1 -3 25 13 15 14 19 3 16 -16
-4 -24 21 -12 40 11 16 39 6 46 -16 2 -10 4 -6 3 8 -2 22 1 25 31 22 27 -3 32
0 32 17 0 12 5 21 11 21 6 0 9 -6 6 -14z m-4852 -240 c8 -7 12 -16 9 -19 -3
-3 4 -8 15 -12 24 -7 28 -25 6 -25 -20 0 -19 -5 9 -34 14 -16 34 -26 50 -26
17 0 25 -4 21 -11 -4 -6 -26 -9 -48 -7 -37 3 -42 7 -45 31 -3 23 -7 26 -33 23
-16 -1 -35 -8 -41 -14 -15 -15 -82 -16 -73 -2 3 6 20 10 36 10 41 0 36 32 -6
37 -16 3 -34 11 -38 19 -4 8 -16 14 -25 14 -10 1 -3 9 18 20 40 23 121 20 145
-4z m2616 -117 c5 -29 13 -55 19 -59 6 -4 15 -37 21 -75 5 -37 12 -71 15 -76
10 -16 25 -9 20 9 -11 42 -17 137 -8 127 14 -14 32 -139 21 -143 -5 -2 -9 -18
-9 -36 0 -18 -3 -36 -7 -40 -16 -16 -11 -93 10 -138 18 -42 24 -48 51 -49 17
0 40 -4 51 -8 15 -6 8 -10 -31 -15 -48 -7 -52 -10 -72 -52 -26 -53 -27 -64 -7
-64 8 0 15 -4 15 -10 0 -5 10 -10 23 -11 16 0 11 -4 -18 -15 -22 -8 -45 -12
-51 -10 -6 2 -17 -1 -23 -7 -7 -7 -14 -7 -20 -1 -10 10 -98 234 -126 321 -9
28 -23 60 -31 70 -12 16 -13 15 -14 -19 0 -39 -18 -88 -31 -88 -4 0 -10 24
-13 53 -19 201 -27 300 -23 304 3 2 8 -25 12 -61 4 -36 11 -66 15 -66 4 0 16
-19 25 -42 17 -41 18 -42 28 -20 6 13 16 21 24 18 7 -3 13 -1 13 4 0 6 -7 10
-15 10 -8 0 -15 4 -15 9 0 12 53 9 62 -4 5 -6 8 -4 8 5 1 11 4 10 15 -4 8 -11
15 -15 15 -10 0 6 -3 14 -7 18 -4 4 -15 33 -24 64 -10 31 -24 75 -32 97 -9 22
-12 44 -8 48 8 8 103 26 110 20 2 -1 8 -26 12 -54z m-1036 -114 c20 -113 20
-102 10 -172 -9 -66 -5 -66 101 -14 43 22 80 36 82 31 4 -10 -36 -157 -49
-181 -6 -12 -30 -18 -95 -23 -47 -4 -89 -5 -92 -2 -7 8 -51 239 -47 247 3 4
53 236 56 258 2 15 18 -53 34 -144z m298 -193 c13 -12 28 -22 35 -22 6 0 28
-11 48 -25 20 -14 43 -25 51 -25 8 0 11 -5 8 -10 -4 -6 11 -18 34 -27 32 -12
40 -20 36 -34 -5 -14 -1 -16 16 -12 15 4 20 2 15 -5 -5 -8 9 -10 46 -7 l53 4
-45 -8 c-25 -5 -95 -11 -157 -14 l-112 -6 -3 37 c-3 35 -5 37 -38 37 l-35 0
-3 72 c-3 79 6 87 51 45z m595 -275 c9 -115 14 -143 34 -175 19 -30 23 -51 23
-114 0 -42 3 -79 6 -82 3 -4 4 -19 1 -34 -5 -23 -8 -17 -23 38 -23 85 -58 182
-71 197 -7 9 -6 20 5 36 15 24 15 24 -23 20 -38 -4 -38 -3 -45 38 l-7 41 -52
-5 c-28 -3 -127 -11 -221 -18 -107 -7 -176 -16 -185 -24 -8 -7 -25 -16 -37
-19 -19 -6 -22 -2 -29 39 -3 25 -4 48 -2 50 2 3 117 8 255 11 247 7 251 7 262
-14 6 -11 20 -24 32 -27 14 -5 19 -13 16 -26 -3 -10 -1 -19 4 -19 5 0 9 48 9
106 0 104 13 163 30 133 5 -8 13 -76 18 -152z m1672 -118 c0 -7 10 -28 22 -47
20 -33 22 -47 19 -162 -2 -117 -1 -124 14 -109 14 14 17 36 16 123 -1 102 0
106 20 106 21 0 21 -2 14 -137 -7 -149 -9 -156 -83 -273 l-41 -64 0 287 c1
163 5 287 10 287 5 0 9 -5 9 -11z m-2527 -183 c44 -1 47 -3 47 -27 0 -24 -5
-26 -64 -37 -49 -9 -71 -9 -89 -1 -19 9 -34 9 -58 0 -41 -14 -74 -14 -115 1
-18 6 -40 8 -50 3 -11 -4 -28 -10 -39 -11 -11 -2 -30 -6 -42 -9 -13 -3 -23 -2
-23 3 0 5 -34 22 -75 37 -41 16 -71 32 -65 35 5 3 62 7 127 9 65 1 120 4 122
6 1 2 64 1 140 -2 75 -3 157 -6 184 -7z m2429 -46 c3 -54 1 -55 -60 -50 -13 1
-25 -6 -29 -15 -6 -18 -38 -17 -208 2 -27 3 -60 6 -72 7 -32 1 -29 24 4 32 14
4 84 4 155 1 l129 -6 -1 27 c-4 49 -1 52 39 52 l39 0 4 -50z m-3068 -6 c16 -6
23 -35 9 -33 -24 4 -39 -4 -48 -23 -6 -13 -16 -24 -22 -24 -7 -1 -17 -2 -22
-3 -5 0 -13 -10 -16 -21 -4 -12 -18 -23 -35 -26 -15 -4 -30 -14 -33 -23 -2
-10 -23 -23 -47 -30 -41 -12 -45 -11 -147 34 -71 32 -108 44 -116 37 -14 -11
-119 -38 -222 -56 -38 -7 -90 -19 -115 -26 -110 -31 -164 -39 -180 -25 -8 7
-40 25 -70 40 -63 32 -66 29 70 59 41 10 93 24 115 32 105 38 353 74 433 63 9
-1 32 1 50 5 l34 8 -4 -38 c-3 -34 0 -40 24 -48 19 -7 46 -5 90 6 62 14 63 15
66 51 3 36 3 36 55 40 102 7 116 7 131 1z m91 -113 c41 -15 60 -17 105 -10 37
6 66 5 89 -2 20 -7 59 -9 93 -5 45 4 59 3 56 -6 -3 -7 -15 -15 -29 -19 l-24
-6 27 -13 28 -13 -26 -13 c-13 -7 -46 -17 -72 -23 -169 -34 -268 -54 -342 -71
-47 -11 -110 -22 -140 -26 -30 -4 -58 -12 -62 -18 -6 -8 -10 -8 -15 0 -5 6
-18 16 -30 23 -35 18 -28 27 32 40 42 10 55 17 55 31 0 12 10 21 31 25 18 4
33 15 36 25 3 11 18 22 34 25 16 4 29 13 29 21 0 8 13 17 30 21 17 3 30 12 30
19 0 18 5 18 65 -5z m-1235 -42 c0 -14 -19 -20 -103 -34 -233 -39 -324 -57
-367 -72 -40 -14 -51 -15 -64 -4 -34 28 -17 37 117 60 72 13 170 31 217 42
122 27 200 30 200 8z m2324 -61 c19 -30 7 -235 -15 -248 -20 -13 -24 -3 -10
23 14 27 11 103 -4 100 -5 -1 -12 -12 -15 -24 -6 -22 -30 -39 -30 -21 0 5 -7
13 -16 16 -8 3 -13 2 -10 -3 3 -5 -36 -9 -87 -10 -50 -1 -107 -4 -125 -7 l-33
-6 3 73 3 74 43 3 c24 2 42 -1 42 -7 0 -6 7 -8 16 -4 13 5 15 0 12 -23 -2 -24
2 -30 27 -39 17 -5 36 -15 43 -22 15 -15 42 -6 42 13 0 8 8 14 18 14 13 0 14
-2 4 -9 -11 -7 -11 -9 2 -14 12 -5 16 0 16 17 0 49 12 85 26 79 10 -4 14 3 14
21 0 32 15 33 34 4z m-64 -300 c0 -24 -3 -60 -6 -80 l-7 -38 -143 0 -144 0 6
73 c4 39 11 74 15 77 4 3 69 6 143 8 l136 3 0 -43z m6467 -1254 c68 -37 91
-45 116 -40 22 4 44 0 70 -14 47 -25 49 -25 81 5 22 20 31 23 52 15 14 -6 31
-16 39 -23 54 -51 197 -128 215 -117 12 7 12 12 3 21 -9 9 -10 16 -2 26 8 9 7
14 -4 19 -9 3 -13 12 -10 20 7 19 -6 18 -29 -3 -18 -16 -21 -16 -64 7 -24 14
-44 26 -44 29 0 2 10 12 22 22 23 21 53 25 63 8 4 -5 17 -9 28 -8 31 3 77 -11
77 -24 0 -6 -7 -18 -16 -28 -15 -17 -14 -20 20 -40 20 -11 36 -28 36 -37 0
-16 20 -31 103 -74 43 -23 55 -38 32 -38 -39 0 -4 -35 82 -83 51 -29 92 -57
93 -63 0 -6 -9 -19 -20 -29 -26 -24 -25 -31 8 -60 31 -28 50 -31 66 -10 9 13
28 5 126 -51 63 -37 116 -68 118 -69 9 -8 -92 -164 -109 -168 -10 -3 -19 -12
-19 -21 0 -18 -39 -76 -51 -76 -10 0 -98 54 -99 60 0 3 14 19 30 35 17 17 41
41 55 55 26 26 32 40 15 40 -5 0 -10 -6 -10 -12 0 -10 -2 -10 -8 0 -6 9 -12 5
-22 -13 -7 -14 -16 -25 -19 -25 -3 0 -30 14 -59 31 l-53 30 28 34 c15 18 35
34 43 34 24 1 43 38 28 54 -10 11 -16 9 -33 -12 l-22 -25 -54 33 -53 33 -33
-36 c-18 -20 -35 -36 -37 -36 -2 0 -50 27 -105 60 -102 61 -121 68 -121 50 0
-27 -37 -17 -129 38 -87 50 -99 61 -86 72 8 7 15 15 15 19 0 3 -35 26 -77 49
-43 24 -89 51 -102 61 l-24 18 37 28 c20 15 33 31 31 36 -3 4 -26 18 -50 30
-25 12 -45 25 -45 27 0 3 7 10 16 17 18 13 5 22 -161 110 -77 40 -97 55 -76
55 8 0 52 -21 98 -46z m-6118 -145 c27 36 34 2 10 -46 -15 -27 -19 -50 -16
-83 4 -38 0 -55 -29 -105 -57 -101 -99 -144 -54 -55 22 44 26 85 8 96 -6 4
-17 -1 -25 -11 -12 -17 -13 -17 -13 -2 0 22 -16 22 -28 0 -16 -28 -25 20 -10
53 l13 28 5 -29 5 -29 23 24 c24 26 31 95 11 102 -15 5 2 39 40 83 l26 31 8
-40 9 -40 17 23z m7196 -15 c29 -19 31 -31 9 -55 -14 -16 -12 -19 25 -40 28
-15 41 -29 41 -44 0 -15 11 -27 36 -38 54 -26 147 -87 141 -93 -3 -3 -63 28
-134 69 -98 58 -128 79 -126 94 1 13 -12 26 -42 43 -25 14 -45 27 -45 29 0 7
54 50 63 51 4 0 19 -7 32 -16z m-5607 -74 c24 -10 26 -21 16 -118 -7 -60 -8
-61 -68 -110 -80 -65 -104 -77 -102 -54 0 9 5 20 10 24 6 4 5 12 -2 20 -13 16
-14 268 -1 268 5 0 6 7 3 15 -6 14 1 12 144 -45z m4487 -56 c26 -17 24 -35 -7
-70 -19 -22 -19 -22 16 -44 28 -16 36 -28 36 -50 0 -25 10 -34 90 -82 49 -29
86 -54 81 -56 -8 -3 -63 24 -110 53 -9 6 -38 23 -66 39 -103 60 -99 55 -80 76
15 17 14 20 -35 46 l-50 27 42 39 c48 43 50 44 83 22z m-6313 -233 c5 -33 -11
-61 -36 -61 -9 0 -24 -4 -34 -9 -15 -8 -202 -47 -279 -58 -32 -5 -33 -7 -34
-52 l-2 -46 -7 50 c-4 28 -14 67 -23 87 -10 21 -17 41 -17 46 0 10 286 59 416
71 7 1 14 -12 16 -28z m1756 -23 c3 -32 8 -37 48 -53 48 -18 52 -31 38 -117
-10 -60 -26 -45 -19 17 4 30 5 55 2 55 -3 0 -39 -20 -81 -45 -109 -64 -176
-97 -176 -86 0 6 7 14 16 19 15 8 14 11 -4 24 -26 18 -22 23 65 82 40 27 70
53 67 58 -4 6 -11 5 -17 -1 -23 -23 -28 -9 -8 24 43 74 64 81 69 23z m4434
-24 c11 11 17 11 31 1 9 -7 17 -20 17 -29 0 -9 19 -25 45 -38 25 -12 45 -28
45 -35 0 -8 -11 -35 -25 -62 -24 -49 -24 -71 1 -50 8 6 20 9 27 6 7 -3 21 1
31 8 10 8 24 11 32 8 8 -3 21 2 27 12 12 16 16 15 60 -6 44 -21 47 -25 42 -54
-6 -29 -2 -32 72 -75 94 -55 100 -56 123 -35 19 17 24 15 123 -45 64 -38 104
-68 103 -77 0 -8 20 -27 46 -42 41 -23 50 -24 68 -13 18 11 25 11 46 -2 13 -9
21 -22 18 -30 -4 -9 9 -24 35 -42 23 -15 41 -32 41 -38 -1 -17 -49 -48 -61
-40 -11 7 -69 -50 -69 -67 0 -12 17 -11 25 1 3 6 15 10 26 10 10 0 27 5 37 11
15 9 27 6 61 -15 l42 -27 -27 -36 c-21 -28 -24 -37 -13 -44 8 -4 31 -19 51
-31 21 -13 38 -28 38 -33 0 -15 -73 -114 -85 -114 -5 -1 -19 -15 -30 -31 -11
-16 -24 -30 -28 -30 -6 0 -75 43 -105 66 -6 4 69 102 83 108 8 3 21 19 30 35
l15 31 -25 -12 c-14 -6 -25 -14 -25 -17 -1 -3 -9 -16 -20 -29 l-19 -24 -61 38
-61 37 -29 -34 c-16 -19 -32 -42 -35 -51 -4 -10 -11 -18 -16 -18 -5 0 -58 31
-117 70 -59 38 -113 70 -119 70 -7 0 -20 -11 -28 -24 l-16 -25 -102 66 c-128
83 -124 79 -104 101 9 10 17 23 17 29 0 5 -37 33 -82 60 -46 28 -94 60 -108
71 l-25 21 44 45 c25 25 43 47 40 49 -24 20 -100 67 -108 67 -6 0 -15 -8 -20
-17 -33 -57 -36 -58 -85 -29 -50 29 -66 32 -66 13 0 -8 -9 -22 -19 -31 -23
-20 -50 -15 -77 15 -17 19 -17 21 19 56 l36 37 42 -23 41 -23 33 32 c19 19 40
30 48 27 9 -3 29 10 51 32 27 28 37 47 40 79 l4 42 -76 47 c-43 26 -79 48 -81
50 -3 2 8 17 24 33 27 28 30 29 51 15 19 -12 25 -13 36 -1z m-6659 -126 c17
-17 26 -37 29 -73 3 -27 17 -74 31 -104 15 -30 26 -55 24 -56 -23 -20 -70 -34
-85 -26 -51 28 -283 212 -260 206 26 -7 43 -1 173 60 43 20 61 18 88 -7z
m7300 -65 c23 -15 68 -42 101 -60 54 -31 61 -32 81 -19 21 14 27 13 73 -12
l51 -27 33 33 c19 17 37 32 40 32 3 0 26 -12 52 -26 l46 -26 -37 -46 c-21 -26
-38 -49 -40 -51 -1 -2 -25 11 -54 28 -48 30 -79 35 -79 11 0 -5 -5 -10 -10
-10 -19 0 -319 184 -314 192 7 12 10 11 57 -19z m-6641 -88 c3 -14 1 -28 -4
-31 -6 -4 -5 -10 3 -15 11 -7 9 -9 -6 -9 -19 -1 -19 -1 -2 -14 9 -7 29 -12 45
-9 54 7 -136 -46 -273 -76 -201 -45 -183 -47 -212 28 -13 35 -21 66 -18 70 6
5 409 78 446 80 10 1 19 -9 21 -24z m1381 -125 c-8 -58 4 -66 104 -73 49 -3
120 -12 158 -21 39 -8 86 -17 106 -21 l37 -5 6 -103 c3 -56 4 -201 3 -322 l-4
-220 -42 -14 c-23 -7 -45 -11 -48 -8 -5 6 -9 55 -11 165 -2 62 -2 62 -31 62
-26 0 -30 4 -33 33 -3 32 -2 32 57 47 l60 15 0 85 0 85 -55 -3 c-30 -2 -60 -8
-67 -14 -8 -7 -12 -36 -10 -89 2 -78 2 -79 -25 -84 -16 -3 -41 -7 -57 -11 -34
-6 -41 10 -41 104 l0 64 -62 -7 c-35 -4 -67 -10 -71 -14 -4 -4 -7 -48 -5 -97
l3 -89 45 3 c25 1 55 5 68 8 21 4 23 2 20 -28 -3 -28 -8 -34 -33 -38 -29 -5
-30 -8 -35 -63 -3 -32 -2 -64 3 -72 4 -8 7 -41 5 -73 -3 -54 -4 -57 -30 -60
-26 -3 -28 -1 -28 31 0 31 -2 34 -25 29 -14 -2 -25 -11 -25 -21 -1 -14 -2 -14
-9 -1 -5 8 -11 80 -15 160 -21 502 -17 461 -42 470 -12 5 -71 16 -131 25 -190
28 -197 25 155 75 l92 13 0 52 c0 44 5 65 16 65 1 0 0 -18 -3 -40z m4447 -131
c0 -5 6 -7 13 -3 6 4 4 -2 -5 -13 -38 -42 -26 -55 127 -143 80 -45 145 -86
145 -90 0 -5 -12 -31 -26 -59 -15 -28 -28 -61 -29 -73 -4 -38 -5 -39 -14 -33
-5 3 -13 1 -16 -5 -6 -10 2 -19 50 -58 10 -8 97 -64 148 -95 26 -17 36 -37 19
-37 -19 0 -218 136 -215 147 2 6 -1 14 -6 18 -17 10 -13 33 7 39 10 3 18 15
18 26 0 23 -2 20 -129 -130 -39 -47 -76 -90 -82 -96 -20 -22 -50 -60 -80 -99
-16 -22 -48 -62 -71 -90 -88 -104 -443 -556 -449 -572 -1 -1 -89 55 -196 125
-217 143 -493 318 -632 400 -16 9 -42 27 -58 38 -28 21 -29 23 -12 39 9 10 19
13 21 7 2 -7 15 -7 40 0 20 6 60 7 89 4 46 -5 52 -4 46 10 -5 14 -3 15 16 5
13 -7 39 -10 64 -6 104 14 185 17 542 21 209 3 385 6 391 8 6 2 16 30 23 62 8
33 16 65 18 72 4 8 -6 12 -31 12 -41 0 -40 -2 -23 65 13 48 15 50 52 55 l40 5
22 95 c12 52 30 123 39 158 l16 62 39 0 c36 0 39 2 45 35 3 19 10 35 14 35 4
0 8 6 7 13 -1 34 4 57 13 57 6 0 10 -5 10 -11z m-1276 -479 c-14 -80 -28 -151
-32 -159 -7 -12 -34 -14 -137 -12 -71 1 -131 4 -134 6 -2 3 68 77 155 165 87
88 161 157 165 152 4 -4 -4 -72 -17 -152z m-9395 -27 c34 -40 61 -77 61 -83 0
-5 -11 -10 -24 -10 -19 0 -111 -34 -125 -46 -2 -2 4 -15 13 -28 9 -14 16 -28
16 -30 0 -3 -29 -19 -65 -37 -36 -17 -65 -36 -65 -41 0 -6 16 -33 35 -60 34
-47 38 -72 11 -66 -18 4 -116 -44 -116 -56 0 -7 7 -21 15 -33 17 -25 11 -32
-50 -52 -22 -8 -50 -21 -63 -29 l-22 -14 21 -34 21 -34 -36 -15 c-19 -8 -41
-15 -47 -15 -7 0 -41 -16 -76 -35 -70 -39 -83 -42 -83 -21 0 8 -9 35 -19 59
l-20 46 26 16 c20 13 23 22 18 43 -11 45 -21 47 -74 19 -55 -31 -69 -34 -51
-12 7 8 18 15 24 15 23 0 96 55 96 72 0 10 19 28 46 44 40 24 45 30 39 53 -10
42 -22 47 -59 27 -36 -19 -56 -15 -56 11 0 9 -10 31 -21 50 -18 29 -20 37 -8
44 35 23 58 21 82 -6 l23 -27 62 31 c61 31 72 43 52 56 -17 10 -2 24 61 55 32
17 59 33 59 36 0 4 -8 29 -17 56 l-18 50 24 17 c14 9 37 21 53 28 24 10 29 10
38 -8 14 -26 30 -24 92 11 29 16 56 28 60 27 4 -1 34 -35 67 -74z m10845 -29
c-8 -18 -14 -36 -14 -38 0 -3 32 -24 70 -47 39 -23 70 -45 70 -51 0 -19 -32
-69 -92 -145 -35 -43 -97 -124 -140 -181 -105 -142 -112 -138 -54 23 34 92 40
135 17 121 -5 -4 -11 0 -14 6 -2 7 -8 10 -12 6 -4 -4 0 -17 9 -30 18 -25 21
-48 6 -48 -5 0 -10 6 -10 14 0 7 -7 19 -16 27 -13 10 -17 10 -25 -2 -7 -10 -8
-5 -4 16 3 17 2 24 -1 17 -3 -6 -10 -10 -15 -6 -10 6 -2 53 12 69 5 5 9 19 9
31 0 17 5 21 26 18 21 -2 28 4 40 32 8 19 19 32 24 29 6 -4 13 2 16 12 3 10
10 26 15 35 5 10 9 25 9 33 0 8 4 15 9 15 5 0 15 17 22 38 16 50 16 51 38 45
18 -4 18 -7 5 -39z m412 -79 c54 -36 106 -65 114 -65 8 1 24 7 34 15 22 17 49
12 85 -16 42 -33 69 -21 125 56 12 17 15 16 59 -10 26 -15 49 -31 52 -36 5 -6
-48 -96 -81 -137 -4 -6 -47 19 -86 50 l-36 28 -25 -30 -25 -29 -159 105 c-174
116 -196 134 -172 134 8 0 60 -29 115 -65z m-325 -334 l60 -33 -27 -46 c-15
-26 -71 -105 -124 -177 -53 -71 -105 -143 -115 -160 -32 -50 -29 -7 5 76 35
82 90 235 90 246 0 5 -5 1 -10 -7 -7 -12 -12 -12 -22 -2 -10 10 -10 15 2 22 8
6 21 8 28 5 16 -6 35 41 26 68 -3 10 0 31 7 45 9 16 15 20 17 11 1 -8 30 -30
63 -48z m-4690 -274 c-14 -14 -15 -40 -1 -32 6 3 10 0 11 -7 1 -7 2 -22 3 -33
1 -17 7 -20 39 -17 l37 3 0 -92 c0 -72 -4 -96 -17 -111 -21 -24 -63 -24 -61 0
4 45 -1 52 -32 46 l-29 -6 -3 73 c-3 83 2 79 -90 64 l-48 -7 0 35 c0 20 -4 39
-10 42 -5 3 -9 18 -9 33 1 27 1 27 8 -3 6 -29 8 -30 70 -33 48 -2 68 1 82 14
10 9 16 21 13 26 -3 5 -3 16 0 24 5 12 10 13 27 4 15 -9 18 -15 10 -23z
m-1719 -110 c7 -7 52 -37 101 -66 48 -29 87 -54 87 -57 0 -4 -166 -84 -176
-84 -4 0 -1 7 6 15 7 8 9 15 4 15 -4 0 1 7 12 16 16 13 16 15 2 10 -10 -3 -20
-1 -23 3 -2 5 5 11 16 14 26 7 16 27 -14 27 -12 0 -17 4 -12 8 17 12 12 72 -7
86 -10 7 -18 16 -18 20 0 9 7 7 22 -7z m3815 -72 c1 -5 -27 -41 -63 -80 -200
-212 -400 -426 -460 -494 -21 -24 -63 -69 -92 -98 -39 -41 -166 -184 -188
-211 -1 -2 -5 1 -8 6 -3 5 22 40 55 78 39 46 58 75 55 87 -3 13 0 17 9 13 8
-3 17 -1 20 4 3 4 -7 7 -22 5 -27 -3 -98 34 -105 55 -2 7 -19 15 -37 19 -31 6
-33 8 -19 22 14 13 11 17 -23 33 -22 11 -39 23 -39 28 0 4 -5 8 -12 8 -9 0 -9
-3 0 -12 16 -16 15 -28 -3 -28 -8 0 -21 13 -29 29 -9 16 -29 33 -45 39 -16 6
-32 20 -36 32 -4 13 -18 23 -37 27 -16 3 -32 12 -35 19 -6 16 -64 19 -79 4 -5
-5 -22 -6 -37 -2 l-28 7 34 45 c18 25 37 53 40 64 7 18 6 18 -17 2 -21 -13
-30 -14 -51 -4 -14 6 -25 14 -25 18 0 9 107 33 117 27 5 -3 24 2 43 10 19 9
44 15 54 14 10 -2 28 2 40 8 27 13 166 53 186 53 8 0 24 3 35 7 52 21 94 31
127 31 19 0 112 18 207 40 94 22 180 40 191 40 10 0 25 6 32 14 14 13 182 52
222 51 11 0 21 -4 23 -10z m2733 -10 l34 -25 22 21 22 21 41 -27 c38 -26 39
-28 25 -50 -14 -21 -12 -24 31 -59 39 -33 43 -39 32 -56 -16 -26 -20 -25 -60
10 -40 35 -67 38 -74 10 -7 -26 -6 -26 -58 10 -44 30 -44 31 -25 50 25 25 25
37 3 45 -10 3 -31 17 -48 30 -25 21 -28 27 -15 35 23 15 33 12 70 -15z m-5555
-165 c19 -21 41 -28 29 -9 -3 6 12 -1 35 -16 22 -15 38 -32 34 -38 -3 -5 -2
-7 4 -4 12 7 73 -29 73 -43 0 -5 -28 -11 -62 -12 -35 0 -67 -2 -73 -3 -5 -2
-23 -3 -38 -4 -28 -1 -29 -2 -22 -48 3 -26 8 -50 11 -54 2 -4 0 -10 -6 -14 -5
-3 -27 7 -47 22 -54 40 -69 56 -58 60 6 2 28 14 50 28 22 13 57 32 78 42 20
10 37 25 37 33 0 9 -19 30 -42 48 -23 18 -37 32 -31 32 5 0 18 -9 28 -20z
m702 -80 c-1 -21 2 -38 8 -37 5 1 8 12 7 24 -6 46 29 36 57 -16 15 -28 15 -28
-30 -35 -50 -8 -69 -16 -69 -31 0 -7 -3 -15 -8 -17 -4 -1 -34 -40 -67 -84
l-60 -82 -11 97 c-6 56 -19 115 -32 141 -11 25 -17 49 -13 53 8 8 114 23 183
26 37 1 37 1 35 -39z m5076 -45 c20 -14 37 -29 37 -32 0 -27 -102 -133 -128
-133 -16 0 -64 42 -55 49 4 3 28 36 53 74 25 37 47 67 50 67 3 0 22 -11 43
-25z m-612 -205 c15 -12 26 -27 23 -34 -7 -18 79 -88 98 -81 9 4 37 -11 67
-35 l52 -41 -22 -39 c-20 -36 -107 -120 -124 -120 -4 0 -25 14 -47 32 l-40 31
-32 -38 c-26 -30 -36 -36 -54 -31 -14 5 -22 3 -22 -4 0 -6 5 -8 10 -5 6 3 10
0 10 -7 0 -8 -9 -14 -20 -14 -17 0 -19 5 -15 36 l5 35 -11 -33 c-9 -29 -12
-32 -26 -20 -15 12 -15 13 1 16 9 2 14 8 10 13 -3 5 -11 7 -17 3 -7 -3 -4 1 7
10 14 11 46 60 46 70 0 1 -8 2 -19 2 -10 0 -17 -5 -15 -11 2 -5 -8 -23 -22
-40 -15 -18 -23 -23 -20 -12 4 11 2 16 -5 11 -6 -3 -9 -14 -6 -24 3 -11 -1
-21 -8 -23 -14 -6 -9 34 11 72 11 21 14 22 20 8 3 -9 10 -14 15 -11 5 3 2 12
-6 20 -13 14 -13 17 1 31 11 12 18 13 27 4 20 -20 44 -12 76 24 17 20 31 39
31 43 0 4 -20 25 -45 45 -25 21 -45 42 -45 47 0 10 69 90 77 90 3 0 18 -9 34
-20z m-5536 -175 c119 -40 160 -56 170 -67 11 -11 -8 -29 -165 -159 l-94 -79
-19 103 c-24 135 -37 218 -37 240 0 16 2 16 38 1 20 -9 69 -26 107 -39z m3330
-121 c-25 -173 -14 -158 -109 -149 -44 4 -82 8 -84 10 -3 3 10 20 74 94 17 20
52 64 78 99 27 35 50 61 53 59 2 -3 -3 -54 -12 -113z"/>
<path d="M1872 7072 c-9 -6 -10 -16 -3 -34 9 -23 7 -27 -14 -32 -17 -4 -22
-11 -18 -26 3 -11 14 -20 24 -20 11 0 19 -7 19 -15 0 -8 9 -15 19 -15 10 0 22
-7 25 -16 5 -14 1 -16 -26 -12 -46 7 -62 0 -43 -18 11 -11 23 -13 47 -6 18 4
47 5 65 2 28 -6 30 -5 20 10 -6 10 -17 16 -25 12 -12 -4 -12 -1 -3 16 6 11 25
23 41 27 28 6 31 10 28 38 -2 25 -8 33 -26 35 -16 3 -25 12 -29 33 -5 26 -9
29 -47 29 -22 0 -47 -4 -54 -8z"/>
<path d="M7370 6588 c0 -7 -3 -23 -6 -35 -5 -17 -2 -23 10 -23 12 0 16 -9 16
-35 0 -26 -3 -33 -15 -29 -12 5 -15 -3 -16 -32 l-1 -39 -8 40 c-4 22 -4 50 1
62 7 19 5 23 -12 23 -16 0 -20 -5 -17 -24 1 -13 -2 -29 -9 -37 -6 -8 -14 -51
-18 -97 -7 -77 -6 -82 10 -76 16 7 17 3 12 -30 -6 -36 -5 -38 18 -32 14 3 36
9 49 12 20 5 25 2 28 -18 2 -12 10 -23 18 -23 10 0 14 -10 13 -29 -1 -16 5
-42 14 -57 13 -23 14 -32 5 -51 -11 -21 -12 -20 -6 10 3 20 1 32 -5 32 -6 0
-11 -7 -11 -15 0 -8 -5 -15 -11 -15 -8 0 -8 -4 -1 -12 6 -7 12 -17 14 -23 4
-14 33 -8 87 17 31 14 40 22 29 25 -9 2 -18 16 -20 31 -2 16 -9 27 -18 27 -11
0 -14 9 -12 33 3 28 1 32 -21 32 -21 0 -23 4 -19 31 4 25 0 31 -18 36 -17 4
-21 11 -17 30 2 13 0 26 -4 29 -14 8 -10 50 6 64 20 17 35 4 35 -31 0 -23 4
-29 17 -27 13 2 19 -6 24 -32 4 -19 7 -31 8 -26 3 18 31 -18 31 -40 0 -13 5
-24 11 -24 11 0 40 -25 39 -35 -1 -19 1 -25 10 -25 6 0 10 15 10 34 0 25 -5
35 -19 39 -15 3 -18 11 -14 26 4 17 0 24 -16 28 -19 5 -21 11 -16 41 3 20 15
52 27 72 59 99 60 102 41 98 -10 -2 -17 -9 -16 -16 2 -6 -3 -9 -10 -7 -30 11
-67 13 -67 4 0 -6 -4 -8 -9 -5 -11 7 -23 -22 -15 -35 3 -5 -1 -9 -8 -9 -9 0
-13 12 -13 35 2 40 -9 52 -30 35 -13 -11 -15 -7 -15 19 0 20 -5 31 -14 31 -7
0 -16 14 -19 30 -6 29 -37 44 -37 18z"/>
<path d="M9697 6453 c-4 -3 -7 -16 -7 -28 0 -32 -7 -34 -48 -14 -56 29 -80 25
-98 -16 -8 -19 -20 -34 -26 -32 -7 1 -19 -13 -27 -30 -21 -46 -33 -41 -26 10
6 40 5 44 -20 55 -14 7 -41 12 -60 12 -28 0 -35 -4 -35 -20 0 -12 -7 -20 -17
-20 -14 0 -14 -3 4 -22 34 -38 34 -43 4 -139 -15 -52 -34 -118 -41 -146 -6
-29 -18 -53 -25 -53 -7 0 -57 48 -111 106 -130 139 -225 234 -234 234 -18 0
-218 20 -247 25 -23 4 -33 12 -36 28 -3 17 -5 15 -6 -8 0 -16 10 -48 24 -70
13 -22 25 -34 25 -27 0 16 30 2 73 -34 16 -13 41 -24 57 -24 27 0 60 -22 60
-39 0 -5 -10 -7 -22 -5 -13 2 -38 -4 -55 -14 l-33 -17 -4 -227 -4 -226 -36
-32 c-20 -18 -36 -35 -36 -39 0 -4 11 -13 25 -19 31 -14 31 -35 5 -103 -12
-29 -19 -57 -17 -63 3 -6 48 -22 101 -35 53 -13 96 -28 96 -32 0 -4 -19 -15
-42 -24 -24 -9 -79 -31 -122 -49 -43 -17 -83 -38 -87 -46 -9 -16 -79 -238 -79
-249 0 -4 48 -22 108 -40 138 -43 154 -48 173 -55 17 -7 18 -2 36 182 7 71 9
72 101 46 88 -25 342 -103 393 -121 43 -16 52 -16 105 -1 33 8 84 16 114 17
l55 2 100 -101 c102 -102 122 -113 159 -85 36 28 46 19 39 -35 -6 -50 -6 -50
22 -50 16 0 47 11 70 25 38 22 43 30 50 71 3 25 4 48 1 52 -3 3 -6 -4 -6 -15
0 -45 -21 -80 -55 -93 -19 -8 -35 -18 -35 -22 0 -5 -5 -6 -10 -3 -13 8 -2 83
16 113 8 12 21 22 29 22 8 0 15 5 15 11 0 6 -9 8 -21 4 -21 -7 -21 -5 -16 51
4 33 9 84 12 114 3 30 8 67 11 82 3 14 1 29 -5 32 -11 7 -15 -7 -26 -79 -10
-64 -26 -105 -41 -105 -8 0 -14 -4 -14 -10 0 -5 7 -7 17 -3 14 5 15 1 10 -27
-4 -18 -7 -41 -7 -51 0 -23 -26 -47 -71 -66 l-32 -13 7 52 c9 64 14 74 30 52
8 -11 15 -13 19 -6 8 12 26 135 22 141 -10 10 -23 -13 -29 -48 -10 -67 -30
-64 -22 4 4 32 10 63 14 69 4 6 6 39 4 73 -3 54 -7 63 -25 68 -114 32 -285 92
-310 109 -51 34 -47 58 15 87 28 13 64 34 79 47 26 21 29 22 81 8 29 -8 87
-26 128 -39 100 -33 226 -67 249 -67 10 0 28 -8 39 -17 19 -16 20 -23 12 -63
-16 -72 -40 -213 -40 -232 0 -10 7 -18 16 -18 8 0 13 -4 10 -9 -6 -8 111 -61
136 -61 6 0 25 -11 42 -24 17 -13 55 -32 83 -42 41 -14 52 -23 50 -38 -2 -18
20 -28 148 -76 83 -30 161 -63 175 -72 13 -10 36 -18 50 -18 23 0 217 -64 228
-75 3 -2 17 3 32 11 25 15 31 14 133 -26 59 -23 107 -46 107 -51 0 -11 81 -53
157 -80 32 -11 72 -27 88 -34 17 -7 59 -25 95 -40 36 -15 99 -42 140 -60 41
-18 147 -63 235 -101 162 -69 362 -168 447 -220 140 -87 221 -134 231 -134 7
0 45 -18 85 -40 76 -42 102 -49 102 -27 0 11 -219 152 -264 170 -11 4 -42 24
-69 43 -45 32 -392 214 -409 214 -4 0 -31 11 -60 24 -29 14 -87 39 -128 56
-41 17 -100 42 -130 55 -194 84 -327 138 -346 141 -25 4 -148 68 -138 71 21 7
333 -117 664 -264 290 -129 584 -272 755 -368 77 -44 174 -97 216 -120 42 -22
100 -53 129 -68 39 -21 55 -25 65 -17 16 14 9 40 -11 40 -8 0 -14 6 -14 13 0
7 -37 29 -82 50 -96 45 -241 127 -234 134 5 5 101 -41 278 -135 75 -39 139
-72 142 -72 3 0 6 152 6 338 l0 339 -40 12 c-22 6 -40 16 -40 21 0 13 6 13 41
-6 17 -8 34 -13 37 -9 9 8 -11 19 -88 52 -78 32 -96 46 -56 41 49 -5 40 18
-13 36 -58 19 -103 58 -94 82 4 10 -1 20 -11 26 -11 6 -15 16 -11 29 4 13 1
21 -10 25 -11 5 -15 14 -11 29 4 15 1 25 -10 29 -8 3 -14 14 -13 23 1 10 -1
25 -5 35 -7 15 5 45 37 91 10 15 8 21 -11 37 -12 10 -20 24 -17 32 9 22 -97
69 -136 61 -17 -3 -33 -12 -36 -19 -3 -8 -9 -14 -14 -14 -5 0 -4 11 1 24 8 23
4 28 -68 69 -42 24 -88 48 -102 52 -14 4 -41 18 -60 31 -19 13 -41 24 -48 24
-20 0 -64 37 -53 44 5 4 55 -16 110 -44 100 -50 142 -66 86 -32 -67 41 -189
102 -205 102 -9 0 -16 9 -17 22 -1 13 -8 33 -14 45 -7 13 -10 25 -7 29 7 6
359 -175 382 -197 16 -15 39 -10 33 6 -4 8 -2 17 3 20 16 10 11 21 -15 35 -20
10 -22 16 -13 27 9 11 6 17 -11 29 -17 12 -19 19 -11 29 9 10 6 16 -10 25 -15
8 -19 17 -15 31 5 14 1 25 -10 33 -16 12 -16 18 -4 66 11 42 11 54 1 58 -6 2
-12 17 -12 33 0 16 -5 29 -11 29 -7 0 -8 14 -4 41 5 31 3 45 -10 59 -16 17
-16 22 -2 49 14 28 14 32 -1 40 -10 6 -17 22 -17 38 0 17 -6 29 -16 31 -11 2
-21 -13 -34 -52 -17 -49 -21 -55 -42 -50 -17 5 -23 2 -23 -10 0 -20 -11 -20
-55 -2 -31 13 -36 13 -44 -1 -8 -15 -11 -14 -32 1 -13 9 -18 16 -11 16 18 0
15 27 -4 34 -10 4 -14 14 -11 26 3 14 -1 24 -14 31 -14 7 -18 16 -14 30 4 12
1 21 -10 25 -10 4 -14 16 -13 33 2 19 -2 26 -15 26 -13 0 -26 -18 -44 -65 -14
-36 -27 -67 -30 -69 -2 -3 -19 3 -38 12 -20 9 -40 17 -45 17 -5 0 -19 -21 -32
-46 -12 -26 -29 -49 -37 -52 -7 -3 -24 -30 -38 -60 -20 -45 -27 -53 -44 -49
-25 7 -38 -20 -18 -35 11 -7 9 -9 -8 -5 -14 3 -24 -1 -28 -10 -5 -15 -35 -14
-76 2 -10 4 -20 -5 -32 -30 -9 -19 -21 -35 -26 -35 -5 0 -47 14 -93 30 -137
51 -137 51 -147 32 -8 -15 -14 -15 -46 -3 -20 7 -38 11 -39 9 -23 -31 -59
-110 -103 -223 -30 -77 -62 -160 -72 -185 -29 -71 -35 -106 -17 -113 13 -5 13
-12 4 -37 -8 -26 -7 -33 6 -43 14 -10 15 -17 5 -46 -9 -26 -9 -35 1 -41 19
-12 -7 -69 -37 -81 -12 -4 -23 -13 -23 -18 0 -6 -7 -8 -15 -5 -8 4 -21 1 -28
-5 -20 -16 -103 10 -99 31 2 12 -11 21 -45 30 -26 8 -49 10 -51 6 -2 -4 -14
-8 -26 -8 -15 0 -27 -9 -34 -25 -6 -14 -20 -25 -30 -25 -10 0 -25 -11 -32 -25
-20 -38 -42 -33 -28 7 9 26 8 33 -6 43 -9 7 -15 19 -14 26 2 7 -18 20 -47 31
-27 11 -51 20 -52 22 -1 1 7 35 17 76 25 94 25 107 0 115 -11 3 -20 15 -20 26
0 10 -4 19 -10 19 -5 0 -20 10 -32 23 -12 12 -45 33 -73 47 -40 20 -50 30 -50
50 0 15 -6 26 -16 28 -12 2 -19 -9 -28 -43 -12 -49 -20 -53 -56 -29 -22 14
-23 18 -11 52 7 20 19 66 26 102 8 36 20 70 27 75 7 6 15 29 17 52 2 24 8 48
13 55 16 19 43 122 35 129 -4 4 -24 12 -45 19 -29 9 -41 9 -52 0 -8 -6 -19 -9
-25 -5 -6 4 -20 -1 -30 -10 -10 -9 -23 -14 -29 -11 -5 4 -14 -1 -19 -9 -7 -14
-15 -14 -75 6 -51 16 -67 26 -67 40 0 11 -4 19 -10 19 -5 0 -10 17 -10 39 0
37 -2 39 -37 46 -21 4 -67 20 -103 37 -121 57 -132 60 -140 48 -5 -8 -9 -7
-13 4 -4 9 -1 16 6 16 7 0 18 20 26 44 12 43 13 43 46 36 39 -9 46 -3 64 50
10 30 9 37 -5 47 -13 9 -15 22 -11 53 5 40 4 42 -29 56 -49 21 -73 18 -86 -11
-16 -36 -30 -31 -23 9 6 31 4 34 -26 45 -53 18 -79 14 -79 -11 0 -13 -5 -30
-10 -38 -15 -24 -40 9 -43 54 -2 29 -9 41 -27 52 -27 14 -72 18 -83 7z m2749
-708 c105 -45 106 -46 87 -60 -15 -11 -12 -15 24 -34 23 -11 44 -25 48 -31 8
-13 -21 -13 -47 1 -12 6 -18 7 -14 1 3 -5 29 -22 58 -37 67 -34 77 -43 59 -54
-10 -6 -1 -16 33 -36 25 -15 46 -31 46 -36 0 -12 -7 -11 -32 2 -39 21 -29 1
11 -22 35 -20 62 -49 44 -49 -4 0 -38 17 -77 37 -39 20 -120 62 -181 92 -60
31 -111 62 -113 70 -3 10 1 12 16 9 17 -5 19 -3 12 11 -18 33 -29 81 -19 81 5
0 33 -13 62 -30 30 -16 58 -30 63 -30 5 0 -16 14 -46 31 -30 16 -61 36 -69 44
-25 25 -3 28 35 6 20 -12 38 -20 39 -19 9 9 -25 36 -57 47 -21 7 -40 17 -43
22 -9 13 -4 12 61 -16z m-3248 -95 c50 -12 92 -25 92 -30 0 -10 -23 -18 -185
-71 -71 -23 -134 -46 -139 -51 -28 -24 -33 -6 -29 90 3 53 6 102 8 109 4 11
18 9 253 -47z m1449 -735 c-1 -5 14 -10 33 -9 19 0 39 -6 43 -13 4 -7 13 -13
20 -13 7 0 25 -7 42 -16 16 -8 39 -13 51 -10 15 4 24 0 28 -10 5 -13 14 -15
39 -10 23 4 28 3 17 -4 -13 -8 -12 -10 3 -10 9 0 17 -4 17 -9 0 -14 54 -21 62
-8 5 8 8 6 8 -5 0 -10 4 -18 10 -18 13 0 112 -61 107 -66 -2 -2 -30 9 -62 25
-32 17 -62 28 -67 25 -4 -3 -21 2 -39 11 -17 9 -38 14 -46 11 -8 -4 -34 3 -57
13 -22 11 -70 31 -106 44 -36 14 -93 35 -127 48 -35 13 -63 27 -63 31 0 4 20
6 44 5 24 -1 43 -6 43 -12z"/>
<path d="M7850 5568 c-36 -22 -81 -53 -100 -68 l-35 -28 3 -144 c2 -78 7 -146
10 -150 7 -6 92 10 175 32 37 11 52 33 20 29 -37 -3 -39 1 -37 59 1 47 26 191
51 290 8 32 -11 27 -87 -20z"/>
<path d="M10170 4735 c-7 -8 -16 -47 -20 -87 l-8 -73 46 -50 c73 -78 125 -125
140 -125 7 0 57 28 110 61 53 34 116 73 140 88 23 14 42 29 42 32 0 9 -407
169 -430 169 -4 0 -13 -7 -20 -15z"/>
<path d="M9360 4237 l-13 -275 22 -23 c11 -12 21 -36 21 -51 0 -16 4 -27 9
-24 5 3 12 -1 15 -10 3 -8 10 -12 16 -9 5 3 10 1 10 -5 0 -6 4 -9 9 -6 4 3 23
-8 41 -24 19 -17 51 -38 72 -48 20 -9 38 -23 38 -29 0 -7 9 -13 20 -13 10 0
33 -14 51 -31 26 -25 36 -29 62 -24 24 5 28 4 17 -4 -11 -8 -12 -11 -2 -11 7
0 10 -5 7 -11 -4 -6 -13 -8 -21 -5 -8 3 -14 1 -14 -3 0 -5 -26 -12 -58 -16
-88 -10 -101 -26 -16 -19 l72 7 6 -29 c3 -16 7 -69 8 -117 3 -83 4 -88 23 -82
11 3 31 8 45 11 21 5 32 20 57 82 27 67 35 78 63 86 29 9 80 69 80 94 0 4 -43
2 -95 -6 -53 -8 -98 -12 -102 -9 -3 4 5 21 19 39 54 71 128 198 116 199 -127
10 -121 5 -115 97 l4 77 39 -2 39 -3 13 53 c23 99 15 147 -23 139 -19 -3 -27
1 -34 19 l-9 24 -5 -25 c-3 -14 -8 -47 -11 -74 -4 -27 -7 -51 -9 -52 -1 -1
-24 2 -50 8 -51 10 -54 18 -41 88 6 28 10 31 34 27 37 -8 72 2 66 19 -3 7 0
15 7 18 7 2 3 5 -8 5 -15 1 -17 3 -7 10 18 11 -35 24 -213 51 -208 32 -211 33
-212 73 -1 19 -7 47 -15 62 -14 25 -16 3 -28 -248z m361 -212 c-1 -22 -5 -43
-6 -46 -5 -7 -148 11 -157 19 -4 4 -4 25 -1 47 l5 41 81 -11 82 -10 -4 -40z"/>
<path d="M10595 4457 c-11 -7 -23 -16 -26 -21 -4 -5 -13 -7 -21 -4 -14 6 -41
-16 -31 -26 6 -6 -11 -10 -34 -7 -6 1 -31 -12 -56 -29 -39 -26 -45 -35 -50
-75 -4 -24 -4 -57 -1 -73 4 -18 1 -34 -9 -43 -8 -8 -22 -57 -31 -109 -9 -52
-19 -107 -22 -122 -3 -16 -2 -28 1 -28 3 0 50 33 103 72 53 40 124 91 157 113
33 22 61 48 63 57 3 13 -1 16 -12 12 -18 -7 -23 21 -6 31 10 6 14 45 5 45 -9
0 -50 -25 -57 -35 -5 -6 -8 -6 -8 1 0 6 16 25 35 43 19 17 35 41 35 53 0 19
-2 20 -17 6 -10 -8 -26 -18 -36 -21 -10 -4 -15 -11 -12 -17 4 -6 -1 -7 -11 -3
-10 4 -13 8 -7 10 7 3 9 11 6 19 -4 10 0 12 11 8 12 -5 19 0 23 14 3 12 11 18
19 15 8 -3 16 5 20 22 8 33 1 40 -20 20 -9 -9 -16 -14 -16 -10 0 3 -10 -1 -22
-9 -31 -22 -38 -20 -25 8 7 13 17 21 25 19 8 -3 15 3 19 15 3 13 10 19 19 15
8 -3 14 -1 14 5 0 6 3 17 6 26 7 19 -3 20 -31 3z"/>
<path d="M10296 4337 c-4 -19 -36 -242 -53 -376 -4 -31 -2 -46 8 -52 27 -17
37 -8 42 39 6 54 54 337 63 368 5 17 0 24 -24 32 -27 9 -31 8 -36 -11z"/>
<path d="M10924 4289 c-3 -6 -20 -20 -38 -31 l-31 -20 27 5 c15 2 25 0 22 -4
-3 -5 -17 -9 -32 -9 -25 0 -120 -59 -269 -165 -22 -17 -107 -77 -187 -134
l-145 -105 42 -24 c23 -14 116 -57 206 -98 158 -70 165 -72 186 -56 71 57 265
225 265 231 0 17 29 168 36 185 5 14 4 17 -4 12 -7 -4 -12 -3 -12 2 0 5 -7 9
-15 9 -8 0 -15 -4 -15 -9 0 -4 -5 -8 -11 -8 -7 0 -9 10 -5 25 5 18 2 25 -9 25
-8 0 -15 6 -15 13 0 6 -3 22 -6 35 -4 13 -2 22 5 22 6 0 14 -12 17 -26 6 -23
8 -24 16 -9 9 15 15 36 17 58 1 5 6 5 11 2 6 -3 10 -2 10 4 0 5 3 17 6 25 10
25 -26 8 -36 -18 -7 -18 -9 -16 -10 14 l-2 35 -10 -37 c-6 -21 -15 -38 -20
-38 -6 0 -7 8 -3 18 4 9 9 28 12 42 2 13 10 28 16 32 9 6 9 8 0 8 -6 0 -15 -5
-19 -11z"/>
<path d="M11150 3975 c0 -9 -4 -13 -10 -10 -14 9 -150 -85 -150 -105 0 -10 81
-41 91 -34 5 3 9 12 9 20 0 8 4 14 9 14 5 0 11 10 13 22 2 13 11 24 21 26 14
3 17 -2 15 -25 -2 -15 -9 -33 -17 -39 -13 -10 -11 -14 7 -25 12 -8 22 -19 22
-26 0 -17 29 -43 49 -43 15 0 17 6 11 43 -3 23 -10 48 -14 55 -4 7 -10 29 -12
49 -3 20 -8 41 -12 47 -3 6 -7 17 -7 25 0 20 -25 26 -25 6z"/>
</g>
</svg>
