<?xml version="1.0" standalone="no"?>
<!DOCTYPE svg PUBLIC "-//W3C//DTD SVG 20010904//EN"
 "http://www.w3.org/TR/2001/REC-SVG-20010904/DTD/svg10.dtd">
<svg version="1.0" xmlns="http://www.w3.org/2000/svg"
 width="408.000000pt" height="412.000000pt" viewBox="0 0 408.000000 412.000000"
 preserveAspectRatio="xMidYMid meet">
<metadata>
Created by potrace 1.16, written by Peter Selinger 2001-2019
</metadata>
<g transform="translate(0.000000,412.000000) scale(0.100000,-0.100000)"
fill="#000000" stroke="none">
<path d="M1556 3485 c-44 -15 -90 -56 -114 -100 -13 -24 -16 -60 -17 -175 l0
-145 659 -3 c371 -1 664 2 669 7 14 14 -10 119 -43 188 -52 112 -171 205 -298
232 -82 17 -805 14 -856 -4z"/>
<path d="M1689 2740 c-127 -5 -138 -7 -177 -33 -23 -15 -52 -46 -64 -70 l-23
-42 -3 -588 c-3 -669 -12 -609 91 -588 165 34 303 163 337 316 7 29 11 155 11
307 l0 258 444 0 c268 0 446 4 450 9 9 16 -21 145 -45 192 -49 97 -129 170
-234 213 -47 19 -76 21 -351 26 -165 3 -361 3 -436 0z"/>
<path d="M730 765 l0 -265 43 0 c66 0 77 18 77 128 l0 92 39 0 c31 0 44 6 61
27 11 15 20 36 18 47 -3 18 -11 21 -60 24 l-58 3 0 54 0 55 58 0 c68 0 92 18
92 68 l0 32 -135 0 -135 0 0 -265z"/>
<path d="M1167 1024 c-4 -4 -7 -124 -7 -266 l0 -258 140 0 c135 0 140 1 140
21 0 23 -18 60 -34 71 -6 4 -35 8 -63 8 l-53 0 0 60 0 60 35 0 c44 0 75 29 75
70 0 30 -1 30 -55 30 l-55 0 0 55 0 55 53 0 c65 0 88 15 90 60 l2 35 -131 3
c-71 1 -133 -1 -137 -4z"/>
<path d="M1607 1023 c-4 -3 -7 -123 -7 -265 l0 -258 145 0 c198 0 185 -19 185
262 l0 219 -25 24 c-23 24 -29 25 -158 25 -73 0 -137 -3 -140 -7z m193 -258
l0 -165 -35 0 -35 0 0 165 0 165 35 0 35 0 0 -165z"/>
<path d="M2135 1005 c-25 -24 -25 -24 -25 -235 0 -207 5 -243 34 -262 14 -10
248 -10 262 0 29 19 34 55 34 262 0 211 0 211 -25 235 -23 24 -30 25 -140 25
-110 0 -117 -1 -140 -25z m175 -240 l0 -165 -35 0 -35 0 0 158 c0 87 3 162 7
165 3 4 19 7 35 7 l28 0 0 -165z"/>
<path d="M2627 1023 c-4 -3 -7 -123 -7 -265 l0 -258 43 0 c23 0 47 4 53 8 23
15 34 52 34 112 0 34 4 59 9 56 5 -4 21 -38 36 -76 31 -81 52 -100 113 -100
52 0 52 1 9 112 -25 63 -25 67 -8 73 31 10 41 51 41 176 0 114 -1 121 -25 144
-23 24 -29 25 -158 25 -73 0 -137 -3 -140 -7z"/>
<path d="M3196 1008 c-25 -22 -27 -35 -51 -236 -34 -289 -35 -272 19 -272 36
0 48 5 65 26 12 15 21 41 21 60 0 33 1 34 39 34 41 0 51 -11 51 -56 0 -39 33
-64 85 -64 25 0 45 4 45 9 0 20 -50 437 -56 464 -8 38 -50 57 -128 57 -53 0
-70 -4 -90 -22z"/>
</g>
</svg>
